<svg xmlns="http://www.w3.org/2000/svg" height="899.55" width="734.88"><path d="M572.2 576.19l-1.33-.44-4.88-3.11c5.32 6.21 9.76 15.08 13.75 26.61l39.03 114.44c2.66-10.2-1.33-29.27-11.53-57.22-6.65-16.85-18.19-43.91-35.04-80.28" fill="#5b3b30"/><path d="M640.95 670.67c2.22 15.08 2.22 27.94 0 39.92a95.08 95.08 0 0 1-15.08 37.7l-.44 16.41c8.42-6.2 19.07-20.4 31.93-41.25-11.09 23.07-21.73 38.6-32.82 45.69l-.45 3.55c-.88 4.43-3.1 7.54-7.1 9.31-.88 13.75-4.87 25.73-11.52 35.93l1.77 6.66a450.91 450.91 0 0 1 7.98 70.97h7.1c8.87-8.43 19.52-16.86 31.94-25.29-11.98 9.76-20.85 18.19-27.06 25.29h22.18c7.1-4.88 13.75-7.1 19.96-7.1 6.2.44 9.76 2.66 10.64 7.1h48.35l-2.22-20.4c5.77-18.2 7.1-35.5 3.1-51.02a39.53 39.53 0 0 1-20.4 2.66c-7.1-.44-13.75-3.1-19.96-6.65-6.2-4-11.53-8.87-15.96-15.53-4.44-6.65-7.54-13.75-8.43-22.17-4.44-29.72 6.2-51.46 31.93-63.43-2.66-20.85-7.1-36.82-12.42-48.8-7.98-16.85-19.51-27.94-35.04-34.15-16.4-28.39-40.8-47.9-72.74-59 35.93 76.74 51.45 124.65 45.24 144.16v.45c2.22 6.65 3.55 13.75 4.44 20.85 10.64-16.42 15.97-40.37 15.08-71.86" fill="#5b3b30"/><path d="M560.67 259.49c-27.5-14.64-50.13-24.4-68.31-28.84-38.15-8.43-78.52-12.86-120.65-12.86-27.95.89-55.45 5.32-83.84 13.3-25.72 7.1-45.24 15.53-59 25.29l-.43 15.08c0 5.77.44 10.64 2.21 14.64 1.33 4.43 6.21 6.65 14.64 7.1l24.4-2.67c43.47-12.42 83.83-18.63 119.76-18.63 50.56.45 97.58 7.1 141.05 19.96 8.87 3.11 16.86 1.33 23.51-3.54 7.98-7.1 10.2-16.86 6.66-28.83" fill="#de281d"/><path d="M571.75 265.7l-7.98-4.44c3.1 12.42.44 22.62-8.43 29.27-7.1 5.33-15.52 7.1-24.84 4.44-45.24-13.3-92.26-19.96-140.6-20.4-35.94-.45-76.3 6.2-120.21 18.62-10.65 3.11-19.08 4-26.17 3.55-8.43-.88-13.75-3.99-15.53-10.2-1.77-4-2.22-8.43-2.66-13.75l.89-14.64-7.1 6.21c-.89 2.66-.89 8.43 0 17.3 1.33 8.87 2.22 13.31 3.55 12.42 13.3 8.87 27.5 11.53 43.02 7.54 86.5-24.4 172.1-25.28 256.38-2.66l30.61.89c8.43-2.66 15.08-7.99 19.07-15.97v-18.19M383.24 5.32a10.2 10.2 0 0 0-5.32 7.54 136.85 136.85 0 0 1 33.26-.44c-.88-3.55-3.1-5.77-6.65-7.54a21.08 21.08 0 0 0-10.65-2.66c-4.43.44-7.98 1.33-10.64 3.1M173.88 577.96c-12.42 7.54-19.08 15.97-20.4 25.29-17.75 9.31-31.06 17.3-40.37 23.95-15.53 11.97-25.28 23.5-29.28 35.48-8.42 12.87-12.86 25.29-13.75 36.37 12.42-6.2 23.51-9.75 33.71-11.53-2.21-15.97 1.33-26.17 9.76-30.16-3.55 4-6.2 7.99-7.1 11.53-1.33 4.88-1.33 10.65 0 18.19 6.66-.89 12.42-.89 17.75 0 2.66 0 3.55.44 3.99.89l-.89 3.99c-3.55 13.3-9.31 28.83-16.85 46.13l-2.22 3.55-4 1.33c-23.5 5.76-43.9 11.97-61.2 17.3v.44c-3.55 3.55-6.21 6.66-7.55 8.87-2.21 3.55-3.54 7.1-3.54 11.53-13.75 17.3-22.18 35.49-25.73 54.56-3.55 15.97-3.55 36.37-.44 60.77L137.5 896c-1.78-13.3-2.67-23.96-2.22-31.94 0-11.09 2.22-21.29 5.76-30.16-11.97 13.75-21.73 31.94-28.83 54.56 2.22-11.1 5.32-21.3 9.76-30.6 4-7.55 10.2-16.42 18.19-26.62 5.76-7.99 11.97-13.3 18.62-16.86 6.22-3.1 14.64-4.88 23.96-4.88-16.41-20.4-38.15-26.17-64.32-16.4a429.88 429.88 0 0 0-73.19 35.48c13.31-10.2 27.5-19.08 41.7-25.73-4.88-6.21-22.18.89-52.34 19.96 13.75-10.65 25.28-18.19 33.7-21.74 9.32-3.54 16.42-3.54 21.74 0a175.51 175.51 0 0 1 27.5-10.64c18.19-6.21 34.16-5.77 47.47.44a46.42 46.42 0 0 0 2.66-15.97c1.77-35.48 1.77-66.97-.45-94.03 3.1-9.32 3.55-17.74.89-25.28-2.22-5.33-6.2-11.1-11.98-17.75 5.33 3.1 9.32 7.1 11.98 11.1 5.32-29.73 19.96-59 44.8-87.4l-.44-.43-8.43 1.33c-15.08 6.65-25.29 11.97-30.16 15.52M495.02 868.05l3.1 1.34c15.08 5.32 33.71 14.19 54.56 26.17h29.27c-20.4-16.86-46.13-29.28-76.73-36.82l-4-.44-2.65 2.21-3.55 4.88v2.66M575.3 119.76c-2.66-19.52-11.53-36.81-27.05-51.9-12.87-13.3-29.72-23.95-50.13-32.82a236.27 236.27 0 0 0-83.83-19.52l-38.15.45c-27.5 4.43-54.11 12.86-80.73 25.72-19.96 9.76-35.48 19.52-47.46 29.72a110.57 110.57 0 0 0-31.05 44.36c26.62-10.65 59.88-18.19 101.13-22.18l72.75-3.55a470.32 470.32 0 0 1 .89-70.52 739.5 739.5 0 0 0 2.21 70.52l82.06 6.21c31.94 4.44 64.76 11.98 99.36 23.51" fill="#de281d"/><path d="M280.33 553.12c-8.87 10.65-16.85 23.95-23.95 40.37-16.41 39.03-28.39 71.86-34.6 98.03l-5.76 32.37c-2.67 12.87-5.77 23.07-9.76 30.61a154.2 154.2 0 0 1-16.42 21.74 409.41 409.41 0 0 0-16.4 19.96c3.99 3.54 8.42 7.98 12.41 13.3l5.32.45 16.42-24.4c4.88-6.65 8.87-10.65 11.97-11.98 16.86-5.76 37.26-7.98 61.22-6.65 5.32 0 8.87 3.1 10.64 9.32 1.33 4.43.89 11.09-1.33 19.07 7.54-.89 12.86.89 15.52 5.32 2.67 4.44 1.78 9.76-2.21 16.41-2.66 10.2-5.33 17.75-8.43 23.07-4.44 6.2-9.76 9.76-15.97 10.64-.89.45 0 1.33 3.1 3.11 2.67 2.22 3.11 5.32 1.34 9.76l11.53-4.44c6.21-2.66 11.09-3.1 13.75-.88 3.1 2.66 4 7.54 2.22 15.52-.45-6.21-1.33-10.2-2.22-11.98-1.77-3.1-5.32-3.1-11.09-.88l-15.08 4.43c-1.77 4-4.88 6.65-7.98 8.87l5.76 6.66.89 3.1 20.85-8.43-21.3 11.54c-.88 2.66-3.99 5.76-8.42 8.87h111.33c1.78-1.78 3.1-3.55 3.1-5.32.45-1.78-.44-4.44-2.21-7.99l-8.43-15.08c-5.76-9.76-7.98-21.3-6.2-35.49 4.87-39.03 7.98-70.52 9.75-94.47-3.55-1.78-4.88-5.33-4-10.65l6.66-26.17a282.11 282.11 0 0 1-33.27-44.36l-3.1-.44c-44.8-10.64-66.98-44.8-65.65-102.9" fill="#de281d"/><path d="M428.93 652.93c-6.66 16.85-16.42 33.26-29.72 49.23l.88 27.06c-.88 5.76-4.43 8.87-11.08 10.2l-11.54 103.35a39.14 39.14 0 0 0 1.78 15.08l12.86 20.85c2.66 4.88 2.66 10.2.89 17.3l155.25-.44c-17.3-9.32-34.6-17.75-52.79-24.4l-3.1-1.33c-.45-.44-.45-1.33 0-3.1.44-3.56 2.21-6.66 5.32-9.32l3.1-2.22 3.55.44c31.5 7.54 59 20.85 82.06 39.93h25.73c-.45-25.73-2.66-49.24-7.99-70.97-3.99-17.3-8.87-30.61-14.63-40.37l-12.87-20.85c-4.43-7.98-7.98-15.96-10.2-23.5-5.76-19.08-15.52-54.12-29.72-104.24-10.64-38.6-24.84-64.32-42.58-78.52l2.22 4.88c6.65 16.86 6.65 33.27-.45 49.24-4.88 12.86-12.86 23.07-23.5 30.16a57.74 57.74 0 0 1-21.3 9.32l-19.96 2.22h-2.21" fill="#de281d"/><path d="M457.76 311.38c-.89 2.22-2.22 4-5.32 4.44-2.67.88-5.33 0-6.66-3.1l-.44-.45c-6.66 3.55-11.1 3.1-13.75-1.78-3.55 3.1-7.1 4-10.2 1.78l-2.22-1.78c-3.55 3.1-7.1 3.55-10.2 2.22l-3.1-2.22c-4.44 4.88-8 6.66-10.65 4.44L393 313.6c-2.66 3.55-5.33 4.43-8.87 3.99l-4.44-2.22c-1.77 1.78-3.55 2.22-5.77 2.66-2.21.45-4.43-.44-6.65-1.77l-.89-1.33c-2.66 3.55-5.32 4.88-8.43 4.44-3.54-1.34-6.2-3.11-7.98-6.22-1.33 1.78-3.1 2.67-6.2 2.67-3.56 0-5.78-2.67-7.1-8.43-3.11 5.32-6.22 7.98-9.32 7.54-2.66 0-4.88-1.33-7.1-4-1.77 4-4.43 5.33-7.98 5.33-4 0-6.66-1.77-7.99-5.32-2.21 5.32-4.43 8.43-7.1 8.43-1.77 0-3.1-.9-3.99-2.22-1.33 3.1-2.66 5.32-4.43 6.65-1.33 1.77-3.1 2.22-4.88 1.77-3.1-1.33-5.77-3.99-7.1-7.54l-2.66 7.54c-1.77 2.67-3.99 3.55-6.2 3.55-3.56 0-6.22-1.77-8-6.2-.88 3.99-2.2 6.65-4.43 8.87-1.77 1.77-3.1 2.21-4.43 1.77l-5.33-2.66-4.43 1.77c2.22 8.87 3.99 15.97 6.2 21.3l36.82 97.58c7.1 18.63 19.08 31.05 35.49 37.26 19.07 7.54 37.7 15.08 56.33 23.5 7.1 3.55 15.08 4 24.4 1.78 23.06-5.77 43.91-13.3 62.54-22.62 8.43-4.44 15.97-10.65 23.07-18.63 6.2-7.1 10.64-14.2 12.86-21.3l43.47-112.66-5.32-.44c-3.1 3.55-6.21 2.66-8.87-3.55l-.45-1.33s-.44 0-.44.44c-2.22 1.78-4.44 2.22-6.66.9-2.66-1.34-4.43-4-5.76-8.44-3.55 5.33-6.21 6.65-9.32 4-2.21-1.78-2.66-6.66-2.21-14.64.88-8.87 0-15.08-1.78-18.63l-25.73-4.44-16.85 10.65-1.33 7.98M228.88 364.16c-3.1-.88-4.88 2.22-5.32 8.88-.45 3.99 0 10.64.88 20.84-2.22-10.2-3.1-17.74-3.1-21.73 0-7.1 2.22-11.09 6.65-11.09 2.22-.44 5.32 2.22 9.76 8.43l18.63 28.38 2.22-7.98-13.75-35.93c-3.55-3.55-7.99-6.65-11.54-7.98-5.32-2.66-9.75-1.78-12.42 2.22-6.65 8.43-8.87 19.51-7.1 33.27.9 8.87 4 19.96 9.32 34.15.89 1.77 2.22 3.99 4.44 6.2l4.88 5.33c7.1 7.98 12.86 13.3 17.74 15.52-.44-7.54 0-15.96 1.33-24.39-10.65-9.31-11.09-17.74-1.33-25.28l-9.76-15.53c-5.76 3.55-8.43 8.43-7.54 15.08.44 4.88 2.66 11.54 7.1 19.96-12.86-15.96-13.3-28.38-1.33-37.7-4.44-6.65-7.54-10.2-9.76-10.65" fill="#f4e4b8"/><path d="M251.94 415.17l3.1-13.74-3.54-5.77c-7.98 5.32-7.98 11.97.44 19.51M259.49 426.7c5.32 6.22 7.98 8 7.98 5.33.44-4.44-1.33-10.64-5.32-18.19l-2.66 12.87M435.14 552.24c-2.67-11.54-3.1-26.62-1.78-45.25-9.31 3.55-19.96 6.66-31.93 9.76l-25.29-.89-20.85-9.76c-.44 19.97-2.21 35.05-5.76 45.25l.89-9.32c-10.2 0-16.86 2.67-20.85 7.1.88 9.76 2.66 19.52 4.88 28.83 9.76-.89 19.07 2.22 27.94 8.87-11.97-6.2-21.29-7.98-27.06-5.32l4 13.3c34.6 17.3 69.2 17.3 103.35-.44l5.76-11.08c-7.54-1.78-16.85 0-27.94 4.87 5.77-5.76 15.52-8.87 29.72-7.98 4.88-11.09 8.43-20.85 9.75-30.16-5.32-5.32-13.74-8.43-25.28-7.99l.45 10.2M288.32 799.74l-2.67 5.33c-2.66 5.32-7.1 8.87-13.3 10.64 3.55 3.1 5.76 5.77 6.65 7.99 2.22 3.99 2.22 8.42 0 12.86l-6.2 9.31 5.31 3.55c5.33-.44 9.76-3.1 14.2-8.42 4.43-6.21 7.54-14.2 9.31-25.29 4.88-6.2 5.77-11.09 2.66-15.08-3.1-3.55-7.98-4.43-14.19-3.1-.44 0-.89.88-1.77 2.21" fill="#f4e4b8"/><path d="M286.54 771.8a7.74 7.74 0 0 0-6.2-3.1c-12.43 0-22.19 0-30.17.44-10.64 1.33-20.4 3.1-28.83 6.2-5.32 2.23-11.53 8.88-18.63 19.97-2.66 3.99-9.32 16.41-19.96 36.81l-1.33 1.78-1.78.44c-1.33-.44-2.21-.44-2.66 0l-1.77 2.22c-9.32 11.98-8.87 31.94 1.77 59.44h69.2c3.1-1.33 8.87-3.55 18.18-5.32l-14.2 5.32h18.64c8.87-6.65 11.53-11.98 8.87-14.64-4-4.88-10.2-9.76-18.18-14.64l-18.2-12.42 15.53 8.43c7.1 3.55 12.42 7.1 15.97 10.2l7.99-8.87c2.21-3.99 2.21-7.1.44-8.87-5.77-5.32-13.3-10.64-23.07-15.97l-22.62-12.86 36.82 18.19c7.1-7.99 8.87-15.09 4.88-21.3-3.1-5.32-9.32-10.64-19.08-15.96l-22.17-13.31 19.51 9.76 19.96-7.1c-3.99 2.66-9.31 5.77-16.4 8.87l13.3 7.54c5.76-.89 10.64-5.32 14.2-13.75 3.54-7.98 4.43-15.08 3.1-21.29-.89-2.66-1.78-4.88-3.1-6.2" fill="#f4e4b8"/><path d="M285.65 542.92l-13.3.45-8.87 10.64-.45 19.96c7.99-14.64 15.53-24.84 22.62-31.05M263.92 545.14l-.44 5.76a91.3 91.3 0 0 1 6.65-7.1l-6.2 1.34M239.08 576.63a26.4 26.4 0 0 1-4.43-15.08c-4.88 2.66-8.43 3.1-10.2 1.33-8.43 9.76-17.75 24.84-27.5 44.8a407.33 407.33 0 0 0-24.85 61.66l-1.77 11.97c1.33 24.4 1.77 50.57.88 78.51 12.87 0 20.85-5.76 23.07-16.4l15.08-60.78c7.54-34.6 19.96-67.86 37.26-98.47-3.1-1.77-5.32-3.99-7.54-7.54" fill="#fe4a0d"/><path d="M222.67 560.22l-.89-4.88c-28.83 31.05-46.13 62.99-52.34 96.7a21.08 21.08 0 0 1 2.66 10.64c11.98-38.59 28.83-73.18 50.57-102.46M256.82 585.5l-4.43-3.1c-2.22.44-3.1.89-3.55 2.22-18.19 34.6-30.6 67.42-37.26 98.91l-15.08 62.1c-2.66 10.65-11.1 16.41-25.29 17.74l-.44 6.21a32.8 32.8 0 0 0 19.52 2.22c6.2-7.1 10.64-13.3 13.75-19.07 4.44-7.54 7.54-17.75 9.76-30.16l5.32-31.5c7.99-32.38 19.52-65.2 35.04-98.91l2.66-6.66" fill="#fe4a0d"/><path d="M230.65 428.93l-7.1-7.99c-3.1 32.83-7.53 62.99-13.74 90.04l-4.44 15.97c-1.77 6.66-2.66 12.42-2.66 16.42l1.33 16.4 7.1-.88c-1.33-3.1-1.33-8.43.88-15.52 9.76-35.93 15.97-74.08 18.63-114.44M263.03 401.87l-3.1-7.99c-8.87 29.28-9.76 54.12-1.33 74.52-4.88-24.84-3.55-47.01 4.43-66.53" fill="#61a89e"/><path d="M250.17 446.22c-6.65-3.99-12.42-9.3-17.74-15.08-2.22 39.92-8.43 77.18-18.19 112.23-2.22 9.3-2.22 14.19.44 15.96l7.1-7.54c0-6.65 3.1-21.73 8.87-45.24 6.21-23.95 9.76-41.7 10.2-53.23.45 6.21 0 14.64-2.21 25.29l-12.87 58.99c-1.33 9.31-1.33 16.85-.44 21.73l9.32-.44c0-12.86 2.21-29.28 5.76-49.24l8.87-48.34c-.44 11.09-2.66 27.94-6.2 50.12-4 21.73-5.77 38.14-6.22 48.35 0 8.87 3.55 15.97 11.1 21.73.44-.88 1.32-1.33 3.1-.88l-.9-2.22c-.88-13.31-.43-29.28.45-46.58l4-47.9-1.78 47.46a827.49 827.49 0 0 0 0 47.02c.44 2.22 1.78 3.99 5.32 4.88l2.66-4.44c.45-23.5 2.67-54.56 6.66-92.7l-3.1 56.77 9.75-1.77c.89-29.28.89-57.66 0-84.72-5.32.88-10.64-.9-15.52-4.44.44 9.32 2.66 19.52 5.76 30.16-7.98-10.2-12.86-21.73-14.2-35.93" fill="#61a89e"/><path d="M444 288.76l-11.08-.44-.89 11.09c0 3.99.89 7.1 2.22 9.75 2.22 3.55 5.76 3.55 9.76.45-1.78-5.33-1.78-11.98 0-20.85M430.26 307.39c-1.33-4-.9-10.2.44-19.52l-10.2-.44c-2.66 11.98-1.78 19.96 2.22 23.06 2.21 1.78 4.87.45 7.54-3.1M404.09 308.28c-1.78-4-1.34-11.1.88-21.3h-12.86c-2.22 10.65-1.33 19.08 3.55 24.85 1.77 2.21 4.43.88 8.43-3.55M417.4 308.28c-1.34-4-1.78-10.65 0-21.3h-9.77c-3.1 12.87-2.21 20.85 2.22 23.51 2.66 1.34 5.33.45 7.54-2.21M388.12 299.4l.89-12.42-10.65.45c-1.33 7.1-1.33 12.86-.44 17.74 1.33 5.32 3.55 7.98 7.1 9.76 1.77.44 3.99-.89 5.76-4-1.77-2.65-2.66-6.65-2.66-11.52M366.38 288.32c-.88 6.65-1.33 11.09-.88 13.3 0 4.88 1.33 8.87 3.99 11.98.89 1.33 2.66 1.77 3.99 1.33 1.78 0 3.1-.89 4-2.22-3.11-5.32-4-13.3-2.67-24.84l-8.43.45M358.84 316.26c2.22 0 4-1.33 5.77-3.55-2.22-4.43-2.22-12.42-.89-24.4l-12.86 1.34c-.44 8.87-.44 14.63.44 17.74.89 5.76 3.55 8.43 7.54 8.87M338.44 290.98c-.45 7.1-.45 11.53 0 14.2.89 4.43 2.66 7.09 5.77 7.53 1.33.44 3.1-.44 3.99-3.1-.9-4.44-.9-11.1 0-19.52l-9.76.89M318.48 308.28a39.86 39.86 0 0 1-2.66-13.75l-10.2 1.77c-.45 5.32-.45 9.76.44 11.98.89 3.55 3.1 5.32 6.2 5.32 2.67 0 4.45-1.77 6.22-5.32M321.14 308.28h.44c.89 2.21 2.67 3.55 4.88 3.55 2.22.44 4-.45 5.77-2.22l3.55-7.1-.89-11.09-16.86 2.66c.9 7.1 2.22 11.98 3.11 14.2M328.24 495.02l-10.2-3.55.88 23.5 9.76-5.76-.44-14.2M302.95 297.19l-9.76 1.77c0 5.77 0 9.76.45 11.98.44 3.99 1.77 5.32 3.55 5.32 2.22-.44 3.99-3.55 5.76-9.31 0-2.67-.44-5.77 0-9.76M283.88 322.03c1.77.88 3.55.44 4.88-.89l3.1-7.54c-.88-3.1-1.33-7.54-.88-14.2l-13.3 3.1.88 12.43c.44 3.55 2.66 5.77 5.32 7.1M275.45 314.04l-.44-11.09-15.97 3.55c0 6.21.89 10.65 2.22 13.3.89 4 3.1 6.22 5.77 7.1 3.1 1.34 6.2-3.1 8.42-12.86M237.75 305.17a33.55 33.55 0 0 1-8.87-3.55c-.44 9.76.44 17.75 3.1 22.62 2.67 6.21 6.66 7.99 11.54 4.88-4-4.43-5.77-11.97-5.77-23.95" fill="#5e7e97"/><path d="M226.22 328.68a11.98 11.98 0 0 0 7.1 2.22c-5.77-4.44-8-15.08-7.55-31.05l-4.43-3.1c-2.66 7.53-2.22 16.85.44 27.05.44 2.22 2.22 3.55 4.44 4.88M250.61 330.9c3.1.89 5.33-3.1 7.99-11.53a49.17 49.17 0 0 1-1.78-12.42l-16.4-.9c0 6.66.43 11.98 1.77 15.53 1.33 4.44 4.43 7.54 8.42 9.32M282.1 453.77l-6.2 2.21c.88 15.53.88 43.47.88 84.72l11.54-.44 1.77-1.33c-1.77-20.85-1.33-41.7 0-61.66.44 19.96 1.33 39.92 2.66 59l10.2-9.76c-.88-11.09-.44-23.06.9-36.37 0 13.3.88 24.4 2.21 33.27l10.65-7.1-.45-25.73c-15.97-6.2-27.06-18.63-34.15-36.81M330.45 508.32l14.64-6.2-14.64-6.22zM571.75 290.1l-8.42 8.42c.88 14.2.44 24.84-2.22 31.05-2.66 5.76-7.1 7.98-13.3 6.65l-1.78 1.77-3.55 9.76c8.43-4.88 16.41-3.55 22.62 4 3.55-24.4 5.77-44.8 6.65-61.66" fill="#5e7e97"/><path d="M552.24 303.4l-7.99 1.33c0 15.08-2.22 25.72-5.76 31.93 5.32 1.78 8.87-.88 11.53-8.42 2.22-7.1 3.1-15.53 2.22-24.84M537.16 334.9c2.66-5.78 4.43-15.53 4.87-30.17l-6.65-.45c-.44 13.3-2.22 22.63-6.65 27.95 3.1 7.1 5.76 7.98 8.43 2.66" fill="#5e7e97"/><path d="M554.45 302.5c.89 15.53-.88 25.74-4.43 31.5 8.43 2.22 11.97-9.31 11.09-34.15l-6.66 2.66M532.72 304.28l-13.3-2.66c.44 2.66 0 9.32-1.78 19.96l-.89 3.1c1.33 4.89 3.1 7.55 4.88 8 1.78.88 3.55 0 5.32-2.23 4-5.76 6.21-14.63 5.77-26.17M510.1 329.12l4-5.76c2.65-7.1 3.98-14.64 3.1-22.62l-12.87-3.11c1.33 4 2.22 9.76 1.78 16.41-.45 7.1-.45 11.53.44 13.3.89 2.23 2.22 2.67 3.55 1.78M526.5 435.13c0-11.97-2.2-21.73-5.76-29.71l-3.54 10.2c3.54 2.66 5.76 8.43 6.2 17.74 0 8.43-.88 19.96-2.66 35.49 3.55-10.65 5.77-22.18 5.77-33.72M455.1 311.38l3.1-20.85-11.53-1.77c-1.78 9.76-1.33 17.3 1.33 23.07.44 1.32 1.77 2.21 4 1.77l3.1-2.22" fill="#5e7e97"/><path d="M484.81 541.15l4.88-1.33 2.67-55.9 1.33 55.9c3.99 0 7.98 1.33 11.97 3.1l2.67-80.28.44 41.7a871 871 0 0 0 .88 41.24l.45.89 15.52 3.55c0-30.6 1.33-58.55 4-83.84-.9 38.6-.9 66.98 0 85.17l11.53 4c0-35.94 1.77-77.63 5.32-125.1-1.77 59.44-2.22 102.03-1.33 127.3l7.98 4.44v-38.58l2.66 40.36 6.66 5.32-.89-1.33c-1.77-22.18-4-62.54-6.21-120.2l.89-35.49c-7.54 13.75-16.41 24.4-27.5 32.38a82.16 82.16 0 0 1-11.98 35.48l3.1-27.05c-6.65 4-13.3 4.88-19.51 3.55-7.54 16.85-19.96 29.27-36.37 37.7l-20.4 9.32c9.31 6.2 15.96 11.08 20.84 15.52.44-6.65.44-13.75 0-22.18 1.33 5.32 2.22 13.3 2.66 24.4l7.54 7.54 2.67-32.38.88 36.37 6.65 8.43" fill="#5e7e97"/><path d="M294.53 614.34a52.07 52.07 0 0 0 8.42 13.3c13.76-21.73 24.4-32.82 32.83-33.27l-4.88-18.62c-9.32 0-21.3 13.3-36.37 38.59" fill="#181615"/><path d="M287.87 597.92l5.32 14.2c12.42-22.62 24.84-35.93 37.26-39.48L327.8 558c-12.86 7.54-26.17 20.85-39.92 39.92" fill="#181615"/><path d="M284.32 581.07l3.1 14.64c10.21-16.42 23.52-29.72 39.49-40.37l-1.33-12.42v-.89c-16.42 10.2-30.17 23.51-41.26 39.04" fill="#181615"/><path d="M283 563.77l.88 13.3c12.42-15.96 26.17-28.83 41.25-38.14 0-3.1.45-5.77 1.33-8.87-12.86 2.22-27.05 13.3-43.47 33.7M442.68 601.03l-4.88 8.87c12.42 11.97 20.85 23.07 25.72 33.27l7.54-4.44 3.55-2.66c-6.65-13.3-17.3-24.84-31.93-35.04" fill="#181615"/><path d="M451.55 584.62L444 599.25c11.53 6.66 22.62 18.63 32.38 35.05l9.31-10.2c-8.87-13.76-20.4-27.07-34.15-39.48M456.43 573.08l-3.55 9.32c14.2 12.42 25.73 25.72 34.6 39.47l3.99-6.2c-7.1-15.08-18.63-28.84-35.04-42.59M340.66 609.9l-4.44-12.87c-8.87 1.34-19.07 12.43-31.5 32.83l9.77 8.87c5.76-9.31 10.2-15.97 13.75-19.96 4.88-5.77 8.87-8.87 12.42-8.87M352.19 638.29l-4-9.32c-7.09 4-13.3 10.2-19.07 18.63l10.65 3.55c3.55-5.76 7.54-10.2 12.42-12.86" fill="#181615"/><path d="M346.87 626.31l-4.88-12.86c-4-1.78-12.42 7.1-25.73 27.06 3.1 2.21 6.65 3.99 10.2 5.76 6.66-9.76 13.75-15.97 20.4-19.96M353.52 640.5a29.24 29.24 0 0 0-10.65 11.54l9.76 1.77c5.32.89 5.32-3.55.89-13.3M450.66 647.6l10.65-3.1c-4.88-9.32-12.87-20.4-24.84-32.83l-5.33 9.76a114.62 114.62 0 0 1 19.52 26.17M425.82 650.26h5.32L448 648.5c-3.55-7.98-9.32-16.41-18.19-24.84l-6.2 11.53c-4.44 9.32-3.56 14.2 2.21 15.08M184.52 822.81c-11.97.44-24.4 2.66-37.26 6.21l-2.21 3.55-3.55 8.43c9.31-4.44 20.4-6.66 32.38-7.54l2.66-2.22h4l3.98-8.43M189.4 813.05l-22.62.89c-7.1 1.77-12.86 6.2-17.74 11.97 8.43-3.1 20.84-4.88 36.81-5.76l3.55-7.1M166.34 849.87a36.05 36.05 0 0 1 5.32-12.87c-9.32 0-19.96 2.67-31.5 7.55l-1.77 11.97c7.99-4 17.3-6.21 27.95-6.65M137.95 860.07v15.08c7.98-4 17.3-6.65 27.94-7.98a70.89 70.89 0 0 1 0-13.75c-7.54-.45-16.85 1.77-27.94 6.65M168.55 880.92l-2.21-11.1c-11.54 2.22-20.85 4.89-27.95 8.44l.89 10.2c7.1-3.55 16.85-6.21 29.27-7.54M139.72 891.12l.45 4.88h33.26l-3.99-12.42c-11.97 1.33-22.18 3.99-29.72 7.54" fill="#181615"/><path d="M283 553.12v7.1c15.07-19.96 30.16-31.05 44.8-33.27l3.1-4.88c-1.33-1.77-9.32 0-23.95 4.44-7.1 6.2-13.76 11.98-19.52 18.63l-3.1 3.55c-.9.88-.9 2.21-1.34 4.43M459.09 517.64L448 509.2c-4 .89-6.2 2.66-7.54 4.88l8.87 6.2c2.66-2.2 5.77-3.1 9.76-2.65M461.3 519.41c-3.99-.44-7.53.44-10.2 2.22 4 3.1 6.66 5.77 8.87 8.43 1.34-1.33 6.22-.45 15.09 2.66l-13.75-13.3M460.86 531.83c2.22 3.55 3.1 7.1 3.1 11.1 11.1 4.43 20.85 10.64 29.28 17.29-1.77-4.43-5.32-9.76-9.75-16.41l-6.21-8.87c-8.88-2.66-14.2-3.55-16.42-3.1M460.42 547.36l.44-4c.45-5.76-2.21-11.08-7.98-16.85l-17.3-12.42c-.44 7.98-.89 16.41-.89 25.28 11.98 0 20.4 2.66 25.73 7.99M436.02 506.1l-.44 4.88 3.1 1.78a10.89 10.89 0 0 1 7.55-4.88l-5.33-3.55-4.88 1.77M460.86 559.78l-3.55 10.64c15.97 13.3 27.95 27.5 35.49 42.14a45.28 45.28 0 0 0 5.32-19.07c-9.76-12.86-22.18-23.95-37.26-33.71"/><path d="M463.52 545.14l-2.21 12.42c15.08 9.31 27.5 20.4 37.26 33.27.44-8.43-.9-17.75-4-27.06-11.53-8.43-21.73-14.64-31.05-18.63M353.08 505.22l-4.88-1.77-11.54 4.43c4 .89 6.66 2.66 8.43 4.88l7.54-1.78.45-5.76M328.68 542.92l.44 3.1c4.44-3.99 11.54-6.2 21.74-6.65l1.77-25.28c-8.42 1.77-14.64 5.32-19.07 9.76-4 5.32-5.77 11.53-4.88 19.07M342.87 513.65c-.88-2.22-3.99-4-8.87-4.44-7.1 3.55-15.08 7.98-22.62 13.75 11.53-4 18.63-4.88 21.3-3.1a44.44 44.44 0 0 1 10.2-6.21"/><path d="M707.04 732.32l-4.43 21.3a208.5 208.5 0 0 0-19.96 7.53l16.85 13.31v28.4l15.52-13.76 11.54 6.65c-3.1-27.05-9.76-48.34-19.52-63.43" fill="#f6a11a"/><path d="M679.98 744.3c5.33-8.43 13.75-13.3 25.29-15.08l-7.1-8.43c-25.73 11.98-35.93 32.82-31.5 61.21 1.34 7.1 3.56 13.3 7.55 19.52a49.54 49.54 0 0 0 14.2 14.64c12.85 9.31 26.16 11.09 40.35 5.76l-.44-.44v-5.77c-14.64 3.1-26.61 1.78-35.93-3.99-9.75-6.65-15.97-17.74-18.18-33.7-1.78-14.2 0-25.3 5.76-33.72" fill="#d1d3d1"/><path d="M103.8 700.83c-11.98 1.33-27.06 5.77-45.25 13.3-8.43 10.65-13.3 21.3-14.64 32.83 15.08-7.54 31.94-13.3 51.01-16.86l4-.88 1.77-3.55c3.1-6.65 4.88-13.75 6.65-21.3l.45-3.54h-4" fill="#1d66aa"/><path d="M123.75 694.18l1.33-4c-.44-.88-1.33-.88-3.54-1.33-12.87-1.33-29.72 2.67-51.46 12.42l-9.76 10.2c21.74-9.3 37.26-13.74 46.14-13.3l3.54.88v3.11c-1.33 8.43-3.54 16.86-7.98 25.73l-1.33 3.1-29.28 7.1a128.02 128.02 0 0 0-27.94 11.53l-.44 8.43c17.74-6.2 37.7-11.98 59.43-17.74l4-1.33 2.21-4c6.66-15.08 11.98-28.83 15.08-40.8" fill="#fff"/><path d="M704.38 731.88c-9.76 1.77-17.3 6.65-22.18 14.2-5.77 7.98-7.54 19.07-5.32 31.93 2.66 15.08 8.43 25.28 17.74 31.5 8.87 5.32 19.96 6.65 33.27 3.1l-1.33-13.75-11.1-6.66-18.62 15.53v-31.94c-4.44-2.66-10.65-7.98-18.19-15.52 7.1-4 14.64-6.66 21.3-8.43l4.43-19.96" fill="#5b3b30"/><path d="M535.38 381.02c-2.22-.44-4.43.45-6.65 3.1l-3.55 10.65c7.1.44 11.98 4.88 13.3 12.86 8.43-15.96 7.55-24.84-3.1-26.61" fill="#f9d28c"/><path d="M530.95 378.8l3.1-.89c3.55-8.42 7.98-12.86 13.3-13.75 10.2-2.21 11.98 6.66 4.44 27.06 2.22-8.43 2.66-14.63 2.22-19.07-.89-5.32-3.1-7.1-7.54-5.32-4.44 1.77-7.54 5.76-9.31 11.53 7.1 1.77 10.2 6.65 8.87 15.08-1.78 7.99-6.66 17.3-15.53 27.5l6.21-10.64c-1.33-8.43-5.76-12.87-12.42-13.31l-2.22 5.32c2.22 3.1 4.44 7.99 5.77 14.64a89.35 89.35 0 0 1 .89 24.4l17.74-17.75A80.4 80.4 0 0 0 558 402.31a86.58 86.58 0 0 0 7.1-23.06c1.33-7.99 1.33-15.97 0-22.62-.44-1.78-.89-3.11-2.22-4-5.32-5.76-11.97-6.65-19.07-3.1l-2.22 1.77-10.64 27.5M520.74 436.02c-5.76 3.1-10.2 4.44-13.3 4l-5.77 13.3 9.31.89c4-.89 7.1-2.66 9.32-5.32l.44-12.87M520.74 432.47c0-7.98-1.77-12.86-4.88-13.75l-7.53 19.08a24.48 24.48 0 0 0 12.41-5.33" fill="#f9d28c"/><path d="M514.1 549.57c4.87 4.44 10.2 11.54 16.85 21.74 4.87 7.54 11.08 22.62 19.07 44.8 8.43 23.95 15.97 50.12 23.95 79.4l7.54 33.26c3.1 12.87 7.1 23.07 12.87 30.61 4.87 7.1 9.75 11.09 15.08 11.53 5.32.9 9.31-1.77 13.3-6.65 1.33-14.64.45-28.83-4.43-42.58L575.3 595.7c-4.88-12.42-11.09-21.3-18.18-26.62-10.65-8.43-24.84-14.64-43.03-19.52" fill="#6c3f31"/><path d="M528.29 571.3c-7.99-11.52-15.09-19.5-21.3-23.94-7.1-5.33-14.19-6.66-20.4-4l5.77 9.76c19.07 10.65 34.6 38.15 47.46 82.95l28.83 102.9c.89 3.11 4.43 10.2 10.2 21.74 6.21 12.42 9.76 18.63 11.98 18.63l19.51 1.77c5.77-.44 9.32-3.54 10.65-8.87l.89-3.54c-4 4.43-8.43 5.76-13.75 4.87-5.77-1.33-11.1-5.76-16.86-13.3-5.32-7.54-9.32-17.74-12.86-30.6l-7.54-34.16a1291.48 1291.48 0 0 0-23.07-78.96c-7.98-23.06-14.64-38.14-19.51-45.24" fill="#6c3f31"/><path d="M589.05 185.4c7.54-24.83.45-41.24-20.84-49.23-38.6-15.08-80.29-24.4-125.53-27.94-55-4-106.9-2.66-155.25 4.88-43.03 6.2-72.3 17.74-87.83 33.7-7.1 6.66-8.87 15.53-5.76 26.62 9.76 31.05 19.51 56.78 30.6 76.3 11.98-14.2 23.96-23.51 36.82-28.4-15.97 10.65-27.5 20.85-35.04 31.5l.44 1.33c15.97-11.53 40.8-21.29 74.96-30.16 20.85-5.32 44.36-8.43 70.53-8.87 45.69-.44 86.05 3.55 121.1 12.86a273.46 273.46 0 0 1 66.53 27.5c-8.87-12.42-21.3-23.95-37.7-35.48 18.62 9.31 31.93 21.29 40.8 35.92 8.87-18.62 17.75-42.13 26.17-70.52" fill="#e8ca20"/><path d="M602.36 176.1c3.1-13.76 2.22-24.85-1.77-32.83-4-7.98-11.98-14.64-24.4-19.52-27.06-11.53-60.33-19.51-100.25-24.4-55-7.09-107.34-7.98-157.9-3.1-41.26 4.44-75.41 11.98-103.36 23.51-16.4 7.1-27.5 15.97-32.82 27.06-5.32 11.09-4.88 25.73.89 42.58a439.36 439.36 0 0 0 15.08 37.26l15.97 36.82 2.22.44 8.87-8.43c-11.54-19.07-22.63-46.13-33.27-82.06-3.1-11.53-.89-21.29 6.65-29.27 14.2-15.53 43.92-27.06 89.16-33.71 50.12-7.54 102.02-9.32 155.69-4.88a471.7 471.7 0 0 1 125.53 27.94c11.98 4.44 19.96 11.09 23.5 19.96 4 8.43 3.56 19.52-.44 32.83-8.42 29.27-17.3 53.22-27.05 71.85l7.98 4.88c15.53-35.48 25.73-64.76 29.72-86.94" fill="#fff"/><path d="M227.1 341.99c-.88-3.1-.88-6.66 0-10.2l-5.76-4c-1.78 5.32-2.22 11.1-.45 16.41 1.78-1.33 4-1.77 6.22-2.21M236.86 332.67c-2.66.89-5.32.89-7.54 0a18.2 18.2 0 0 0 0 9.76c4 0 8.43 2.66 14.2 6.65-1.78-4.43-3.1-9.75-4.44-16.4h-2.22" fill="#61a89e"/><path d="M259.04 430.26c-.44 5.76-.89 11.97-.44 17.74 6.2 7.1 13.75 8.43 22.62 3.1l-16.86-45.68-1.33 4.43 5.77 12.42c1.33 5.32 1.77 9.76.44 13.3-1.33 2.23-4.43.45-10.2-5.31M459.09 299.85c3.99-2.66 8.43-5.32 13.3-7.99l-11.53-1.33c-.44 2.22-1.33 5.33-1.77 9.32" fill="#faf0cc"/><path d="M472.4 334c-16.42 3.1-27.95 14.64-34.16 33.27 6.21-5.32 11.98-7.98 17.3-7.54 4.88.44 8.87 3.55 11.09 9.31 6.65 15.09 5.32 30.6-3.1 47.91-2.67 4.88-6.66 8.87-12.43 12.42 18.19 1.33 29.72-.44 34.16-6.21 7.54-10.2 11.98-22.62 13.75-37.7 1.33-14.64-.44-27.95-5.77-39.48-4.88-9.76-11.53-13.3-20.84-11.98M331.34 334.9c-4.88-6.66-10.2-8.88-15.52-8-10.65 1.78-18.19 8-23.07 18.2-3.1 7.09-5.32 17.3-6.65 31.49-1.33 15.96 2.66 29.27 11.53 39.47s19.96 14.2 32.82 12.42c-5.76-5.32-9.75-11.97-12.42-19.51-1.77-5.33-2.66-12.42-3.1-21.3-.44-10.2 1.78-17.74 7.1-22.62 4.43-3.99 11.97-6.2 21.73-5.76-3.55-10.65-7.54-19.08-12.42-24.4" fill="#fff"/><path d="M284.77 807.29c.44-5.77 2.22-9.32 4.88-11.1 2.21-7.1 2.66-13.3 1.33-18.62-11.1 15.97-28.83 21.73-54.12 16.85l18.63 10.65c7.54 3.99 13.3 7.98 16.86 10.64 7.54-2.21 11.09-5.32 12.42-8.42M295.86 838.78l-7.99 1.33c-2.66 0-5.32-1.33-7.54-3.55l-7.54 9.76 6.21 3.99c5.77-.44 11.1-4.44 16.86-11.53M273.23 875.15c8.88-7.54 11.98-14.2 9.76-19.96-6.2 7.54-12.86 11.53-19.96 11.98l10.2 7.98M270.13 897.33l7.1-6.65c3.55-3.11 3.99-6.66.88-11.1-35.92 5.33-52.34 11.1-49.23 17.75h41.25" fill="#f9d28c"/><path d="M249.28 833.01c7.1 3.1 14.64 7.54 23.07 13.3 6.2-6.2 8.87-12.85 8.43-19.95-6.21 5.76-16.42 7.98-31.5 6.65" fill="#f9d28c"/><path d="M676.88 895.56c-3.55-5.77-11.1-5.77-22.18 0h22.18M170.33 656.92c-.89-4-3.55-8.43-7.54-12.42 2.22 30.16 1.33 56.33-2.66 77.18-5.33 26.61-15.08 48.35-30.17 66.98 11.1-3.55 23.51-1.78 36.82 4.43l2.66-23.06.89-8.43h-.89l1.33-28.39.89.89c0-16.86-.89-35.05-2.22-53.23 2.22-9.76 2.66-17.3.89-23.95" fill="#5b3b30"/><path d="M189.84 773.57c11.1-10.2 18.64-21.73 21.74-34.15-5.77 3.55-11.09 5.32-15.52 4.88-11.1 1.77-19.52-1.77-24.4-10.2l-1.33 27.5h1.33l-2.22 8.43c4.88 3.1 11.53 4.43 20.4 3.54" fill="#5b3b30"/><path d="M192.5 811.72l3.56-8.87c-5.77-9.31-5.77-20.85 0-35.48l-24.4 28.83 13.3 14.63 7.55.9M565.99 733.21c-8.87 1.77-19.96-.89-32.83-8.87 19.52 23.5 33.27 47.9 41.7 73.63 9.76 29.72 12.86 62.54 8.87 98.47l30.16.44c-.44-23.5-3.55-49.23-9.31-76.73-1.78-12.86-7.1-25.73-15.97-38.15-11.1-17.74-18.19-33.7-22.62-48.79M557.12 699.5c-14.2-52.78-25.29-88.27-34.16-106.01-7.1-17.3-17.74-30.6-31.05-39.92 6.21 15.08 8.87 28.83 7.54 40.8-.88 9.76-4.88 19.52-11.53 28.84 36.37 30.16 59.88 55.44 69.2 76.29" fill="#5b3b30"/><path d="M456.43 340.21c9.76-8.42 20.4-9.76 31.05-4.43A54.75 54.75 0 0 1 499 358.4c1.33 6.65 2.22 15.52 2.66 26.61-7.98 31.5-17.3 47.02-28.39 45.69 11.1 11.53 15.53 26.61 14.2 44.35 12.86-20.84 31.93-66.53 56.77-137.5l-6.65-.44c-3.55 3.55-6.65 1.77-10.2-4.44-4 4-7.99 1.33-12.87-7.98l-5.76 5.76c-2.22.45-3.55-2.21-4.88-8.42 2.66-13.31 1.33-22.18-3.1-27.06l-41.7-5.77-3.1 23.95c-4 1.78-7.55.9-11.54-2.66-4.44 4.44-9.31 3.55-13.75-2.21-3.55 4.87-7.1 4.87-11.53.44-4 4-8.87 4-13.75 0-3.55 6.2-7.54 6.65-11.98 2.66-4 6.2-8.87 6.65-14.64 1.77-3.54 4.88-7.54 4.88-11.97 0-5.32 7.1-11.1 6.22-16.86-2.66-4.43 5.77-9.31 4.44-14.2-4.43-3.98 7.98-9.3 9.31-15.96 3.1-4.88 7.99-10.2 8.43-15.08.45-4 8.42-7.99 10.2-11.98 5.32-3.55 11.09-9.31 11.53-16.85 1.77-1.78 7.1-4 10.65-6.66 11.54-2.66.88-5.76-1.33-9.31-6.66-2.22 4.88-4.88 8.43-7.1 9.76-2.66 1.77-5.32 1.33-7.98-2.22l-4.44 2.67c.89 6.2 3.1 14.63 6.21 23.95 7.1-12.42 17.3-20.4 30.16-24.4l23.51-1.33c12.42-5.32 21.74-6.2 27.5-2.66l37.26-4.88c14.64-1.33 27.95-1.77 40.37-.89 8.87.9 17.74 2.66 27.05 6.66 6.66 2.66 14.64 6.65 23.96 11.97" fill="#f9d28c"/><path d="M573.08 264.8c-15.52-9.75-31.93-18.18-48.79-24.4-10.2-3.98-24.4-8.86-42.58-13.74 13.75 8.43 23.06 17.74 27.06 27.5 4.43 11.1 1.77 21.74-8.88 31.05 2.67 4 3.56 7.98 2.22 11.98 18.63 4.88 33.27 6.65 44.8 5.32 12.87-1.77 21.74-7.54 26.17-17.3v-20.4" fill="#5b3b30"/><path d="M593.93 165.9c-1.33-16.86-12.86-28.4-35.48-34.6-34.6-12.43-69.2-19.97-103.8-23.96-23.5 5.77-45.24 15.08-64.76 27.95v18.62l22.62 14.2c8.43 4.88 16.86 9.32 24.4 11.98.44 4.43 2.22 7.1 4.44 7.98l9.75-1.77c15.53 10.2 25.73 23.95 30.17 41.25 22.62 3.99 50.12 14.2 82.06 30.16 16.4-35.04 26.61-65.65 30.6-91.82" fill="#f6a11a"/><path d="M577.08 121.1c-5.33-34.16-27.5-62.1-66.54-82.96-35.04-15.08-66.98-23.06-96.7-24.4 20.4 15.1 35.49 27.51 44.8 38.6 13.31 15.08 19.97 30.16 20.4 46.13 27.95 3.55 60.33 11.09 98.04 22.62" fill="#5b3b30"/><path d="M604.13 178.31c3.1-15.97 1.34-28.83-4.43-38.59-4.44-7.98-12.87-14.2-24.4-18.18-35.93-12.43-68.3-19.97-96.25-22.63-5.77 4-13.75 7.1-24.4 9.32 27.5 2.22 60.33 9.31 98.92 21.29 15.97 4.43 27.06 10.2 32.82 17.3 7.99 9.76 8.87 23.06 4 39.92-5.33 18.19-14.64 42.14-27.06 72.75l10.64 5.32c12.42-26.17 22.62-55 30.16-86.5" fill="#d1d3d1"/><path d="M345.54 359.29c-10.65 0-18.19 2.21-23.96 7.1-5.32 7.09-7.1 18.62-4.43 34.15l32.82-23.95-4.43-17.3M434.7 371.26a132.22 132.22 0 0 0-4.44 33.27c4.88-6.21 17.74-15.08 38.59-27.06-2.22-12.42-8.43-17.74-18.63-15.52-4.44 1.33-9.76 3.99-15.53 9.31"/><path d="M334 429.81c7.1-.88 12.87-3.99 16.42-7.98 3.99-7.54 3.99-22.62-.45-45.24a156.88 156.88 0 0 0-32.38 23.95c2.22 12.86 7.54 22.62 16.41 29.27M430.26 404.53c-.9 14.64 5.32 23.06 18.18 25.28a32.1 32.1 0 0 0 15.53-16.85c5.32-13.31 7.1-25.29 4.43-35.49-19.96 10.65-32.82 19.96-38.14 27.06" fill="#1d66aa"/><path d="M448 368.16c-1.33-.45-3.1.44-4.44 2.22-1.77 1.33-2.66 3.54-2.66 6.65-.44 2.66 0 5.32.9 7.54.88 2.22 1.76 3.55 3.54 3.99a4.9 4.9 0 0 0 4.43-2.22c1.78-1.77 2.67-3.99 3.11-6.65 0-3.1 0-5.32-.89-7.54-.89-2.22-2.22-3.55-3.99-4M329.12 368.6c-1.77-1.33-3.54-1.77-5.32-.89a4.02 4.02 0 0 0-2.66 4 10.3 10.3 0 0 0 1.33 7.1c1.33 2.66 2.66 4.87 4.88 6.2l5.32.9c1.33-.45 2.22-1.78 2.66-4 0-2.22-.44-4.88-1.33-7.1l-4.88-6.21" fill="#fff"/><path d="M452 387.67c-1.34 0-3.11.45-4.44 1.78-1.78 1.77-2.67 3.99-3.1 6.2 0 2.67 0 5.33.88 7.1.89 2.22 2.22 3.55 3.99 3.55 1.77.45 3.1-.44 4.44-1.77 1.77-1.78 2.66-4 3.1-6.21 0-2.66 0-4.88-.89-7.1-.88-1.77-2.21-3.1-3.99-3.55M340.21 389c-1.77-1.77-3.1-2.66-4.88-2.66-1.77 0-3.1 1.33-3.99 3.1-.89 2.23-.89 4.44-.89 7.55a14.6 14.6 0 0 0 3.1 7.1c1.34 1.77 3.11 2.66 4.44 2.66a5.3 5.3 0 0 0 4-3.55l.88-7.1c-.44-3.1-1.33-5.32-2.66-7.1M257.71 162.79c3.55-5.32 4.88-10.2 3.55-13.75-.89-4.44-4.44-7.1-11.1-7.99-4.43-.89-8.86 0-13.74 2.22a297.53 297.53 0 0 0-12.86 7.1c-1.78 1.33-2.67 2.22-2.67 3.1l20.4 52.34c1.78 3.55 4.89 4.44 9.77 2.22 7.1-3.1 12.42-5.77 15.08-7.98a24.75 24.75 0 0 0 10.2-13.31c.44-3.1 0-6.21-2.66-9.76-2.22-2.66-5.32-4.88-8.43-5.32l-7.1-3.1c-2.21-1.34-2.21-3.56-.44-5.77zM232.43 165c-1.33-1.33-2.22-3.54-3.1-6.2-.45-3.55-.45-5.77 1.32-6.66 5.77-4.88 11.1-7.1 16.86-6.65 3.99.44 6.2 2.22 7.1 5.32 1.33 2.66.88 5.77-1.78 8.43-2.66 3.1-5.32 5.32-9.31 6.65-4.44 1.78-7.99 1.33-11.1-.89zm33.7 25.29a29.9 29.9 0 0 1-9.75 8.43c-4.88 2.66-8.87 1.77-10.65-1.78l-3.1-6.65c-.44-2.22.44-4.44 2.22-6.21 3.1-2.66 7.1-4.44 11.97-5.77 4-.44 6.66.89 8.87 3.1 2.22 2.67 2.22 5.33.45 8.88M557.56 151.25c-1.78-.88-3.55 0-5.32 2.22-11.54 15.08-21.3 31.5-30.17 48.8-.44 1.33-.44 2.66.9 3.1.88.89 2.2.44 2.65-.89l5.77-9.31c3.55-4.44 8.43-5.33 14.64-3.1 6.65 1.77 10.2 5.76 10.64 10.64v7.54c-.44 3.55 0 5.76 0 7.54.89 1.33 1.33 2.22 2.22 2.22l1.78-3.1v-61.22c-.45-2.22-1.34-4-3.11-4.44zm-4.88 16.86l1.33 2.66v11.98c0 1.77-.89 3.1-2.66 3.99l-4.44-.44-3.54-2.67a5.65 5.65 0 0 1 0-5.32l5.76-8.87c1.78-1.77 2.66-2.22 3.55-1.33M289.2 137.06a337.74 337.74 0 0 0 7.99 25.73c4.43 11.53 7.98 19.51 11.97 23.95 5.77 5.77 11.98 7.1 19.08 4 6.65-2.67 10.64-8 11.09-15.53 1.33-12.42-1.78-28.4-8.43-47.9-.45-2.23-1.78-2.67-3.55-1.34-1.77.89-2.22 2.22-1.77 4l8.42 39.91c.45 3.55-.44 6.66-2.66 9.32-1.77 2.22-3.99 4-7.1 4.43l-8.87-.44c-3.1-1.33-5.32-3.55-7.1-6.65-2.21-5.33-4.43-12.42-6.65-20.85l-5.32-21.3c-.89-3.54-2.66-4.43-4.44-3.54-2.21 1.33-3.1 3.1-2.66 6.21M385.01 168.55l-.44-46.13c0-1.33-.89-1.77-2.66-1.77-1.78-.45-3.55 0-4.44 1.33-.88.44-1.33 9.76-.88 27.06l.44 34.6c.44 1.33 1.77 2.21 4 1.77h35.03c2.66-.44 3.55-2.22 3.55-4.88-.44-2.66-1.77-4.44-4.43-4.44-2.67-.44-7.1-.44-13.31 0l-12.86-.44c-1.78 0-3.11-.89-3.55-2.22l-.45-4.88M493.24 151.7c3.1 1.33 4.44 3.99 4 7.98l-3.55 29.28c-.45 3.55.44 5.32 2.21 5.76 1.78.45 3.1-.44 3.55-2.66l1.78-24.84c.88-10.64 1.33-18.63 2.22-23.95.88-4.44 0-7.98-2.67-9.76-2.66-2.22-5.76-1.33-8.87 3.1l-10.64 15.09c-2.66 2.21-5.33 3.55-7.99 3.55-3.1 0-5.32-1.78-7.54-5.33l-8.43-21.29c-1.33-3.55-3.54-5.76-6.2-6.65-2.67-.44-4.88 1.33-5.77 5.77-3.1 13.75-4.88 32.38-4.88 56.33 0 2.22.89 3.55 3.55 3.1 2.22-.44 3.1-1.77 3.55-3.99l2.66-27.5c0-3.55 1.77-5.32 4.88-5.32 3.1-.45 5.76.88 7.54 3.99l8.87 15.08 3.1-2.22 10.65-13.3c2.22-2.67 5.32-3.55 7.98-2.22"/><path d="M340.21 598.81l4.44 12.86c28.83 9.32 58.1 9.32 87.82.45l7.99-13.3c-32.83 15.96-66.1 15.96-100.25 0" fill="#fff"/><path d="M355.74 637.84c3.1 7.55 4.43 12.87 3.55 15.97 8.42 12.87 18.18 25.73 28.38 39.04h6.66a240.1 240.1 0 0 0 25.72-41.7c-3.99-2.22-3.54-8.43.9-17.74l9.3-17.74c-29.27 8.42-57.21 8.42-84.27-.45l9.76 22.62" fill="#fff"/><path d="M335.33 886.68l3.1.45c22.19 5.32 45.25 3.55 68.76-5.33 25.28-6.65 57.22-29.72 94.92-68.75-82.06 52.79-137.94 77.18-166.78 73.63" fill="#5b3b30"/><path d="M361.06 660.47l-3.1-4.88c-.9 1.33-2.67 1.77-4.88 1.33h-.45l3.55 6.2 4.88-2.65M374.37 679.54l-2.66-4-4.44 3.55 2.66 3.55 4.44-3.1M362.4 672.44l3.54 4.88 4.44-3.1-3.55-5.33-4.44 3.55M361.06 670.67l4.44-3.55-3.1-4.88-4.89 2.66 3.55 5.77M376.14 689.74l3.55-3.1-4-5.33-4.43 3.1 4.88 5.33M386.79 697.28h7.98c-.89-2.22-2.22-3.1-3.55-3.1-1.77 0-3.1 1.33-4.43 3.1M383.24 697.73l2.66-3.55-4.88-5.77-3.55 3.1 5.77 6.22M396.55 694.62l2.21 4 4.88-5.77-3.55-3.1-3.54 4.87M423.6 660.02l-4.43-2.66-3.1 6.21 4.43 2.66 3.1-6.2M421.83 652.04l-1.78 3.55 4.44 2.66 2.22-5.32h-1.33l-3.55-.9M416.95 673.33l2.66-4.88-4.88-3.1-2.66 4.87 4.88 3.1M408.52 676.43l4.44 3.1 2.66-3.98-4.44-3.55-2.66 4.43M408.52 685.75l3.1-4-4.43-3.54-2.66 4.43 4 3.1M404.97 691.07l2.66-3.55-3.99-3.1-2.66 3.55 4 3.1M395.66 699.5c-3.1 3.1-6.21 3.1-9.32-.45-3.99 8.43-6.65 17.75-8.42 27.95-.45 3.1.44 5.77 2.21 7.98a13.73 13.73 0 0 0 7.54 2.22c3.11 0 5.77-1.33 7.55-3.1 2.21-2.66 3.1-5.33 3.1-9.32l-2.66-25.28M386.79 739.42l-5.32-.89c-1.78 23.51-4.88 54.56-9.32 93.6-.89 6.65-.89 11.53-.44 15.52.44 6.21 2.66 12.42 6.2 19.07l8.88 15.53c1.33 3.99 2.22 6.65 2.22 8.43L385.9 896h4.44c2.66-5.77 2.66-11.09 0-15.53l-7.1-10.64c-3.1-4.88-5.32-8.43-6.21-11.53-1.77-4-2.22-8.88-2.22-14.64l1.33-16.41c5.33-45.25 8.87-74.52 10.65-87.83" fill="#d1d3d1"/><path d="M393.44 727.44c0-1.77-.44-3.1-1.33-4.43-1.33-1.33-2.22-1.78-4-1.78-1.32 0-2.65.45-3.54 1.78a5.7 5.7 0 0 0-1.78 4.43c0 1.78.45 3.1 1.78 4.44a4.04 4.04 0 0 0 3.55 1.77c1.77 0 2.66-.44 3.99-1.77zm-7.54-3.1c.89-.89 1.77-1.33 2.22-1.33 2.22 0 3.1 1.33 3.1 4.43 0 3.1-.88 4.88-3.1 4.88-.45 0-1.33-.44-2.22-1.33l-.89-3.55.89-3.1"/><path d="M433.8 523.4l.9-18.18c-15.53 6.2-30.61 9.76-45.25 11.97-11.53-2.21-23.07-6.2-35.04-12.42l.44 8.88c6.66 10.64 15.08 16.85 24.4 19.51l34.6 8.43c11.97 4 20.84 8.87 26.6 14.64 2.67 3.1 4 7.1 3.56 11.97l-3.1 12.43 9.75 1.77c4.44-8.43 7.99-19.96 11.1-33.71-9.32-6.21-18.2-8.87-27.07-7.99-.88-4.43-.88-10.2-.88-17.3" fill="#f9d28c"/><path d="M589.94 781.11a198.79 198.79 0 0 1 14.2 35.05c6.2-7.54 10.2-19.08 11.97-34.16l-26.17-.89" fill="#6c3f31"/><path d="M604.13 816.16c6.21-7.54 10.2-19.08 11.98-34.16l-26.17-.89a198.79 198.79 0 0 1 14.2 35.05" fill="none" stroke="#000" stroke-width=".26666" stroke-linecap="round" stroke-linejoin="round"/><path d="M189.4 774.02l-19.52-3.1c-.44 8.86-1.77 16.4-3.54 22.17l5.32 3.55c4-6.21 9.76-13.75 17.74-22.62" fill="#5b3b30"/><path d="M169.88 770.91c-.44 8.87-1.77 16.42-3.54 22.18l5.32 3.55c4-6.21 9.76-13.75 17.74-22.62l-19.52-3.1" fill="none" stroke="#000" stroke-width=".26666" stroke-linecap="round" stroke-linejoin="round"/><path d="M220.9 447.56h-3.55c-1.78 17.3-4.88 34.6-8.43 51.45l-6.21 25.72a182.77 182.77 0 0 0-3.1 15.97c0 2.67 0 6.21.44 10.65l.88 8.87c-32.38 14.2-49.23 27.94-50.12 40.8-41.25 21.74-64.31 41.7-69.64 60.33-9.31 14.2-14.2 27.5-14.2 38.6-19.5 19.07-28.38 38.58-27.05 59.43-7.54 6.65-11.09 13.75-11.09 20.4C7.1 807.28-2.22 839.22 0 875.6l2.66 23.96 364.61-.45V896h-94.92c4.43-3.1 7.54-6.21 8.43-8.87l21.29-11.54-20.85 8.43-.89-3.1-5.76-6.21a23.98 23.98 0 0 0 7.98-8.43l15.08-5.32c5.77-2.22 9.32-2.22 11.09.88.89 1.78 1.77 5.77 2.22 11.98 1.77-7.98.89-12.86-2.22-15.52-2.66-2.22-7.54-1.78-13.75.88l-11.09 4c1.77-4 .89-7.1-1.33-9.76l-3.55-2.67c6.65-.88 11.98-4.43 15.97-10.64 3.55-5.32 6.65-12.86 8.87-23.07 4.44-6.65 4.88-11.97 2.22-16.4-2.66-4.44-7.99-6.22-15.53-5.33 2.22-7.54 2.66-13.75 1.33-18.63a16.71 16.71 0 0 0-3.99-6.65c-2.22-2.22-4.43-3.1-7.1-3.1-23.06-1.34-43.9.88-61.2 6.2-6.22 2.22-15.53 14.64-27.5 36.82l-6.22-.45c-3.99-5.32-8.42-9.76-12.42-13.3 2.66-3.55 7.99-10.2 16.41-19.96a154.2 154.2 0 0 0 16.42-21.74c3.99-7.54 7.1-17.74 9.76-30.6l5.76-32.38c6.21-26.17 17.75-59 34.6-98.03 7.1-16.42 15.08-29.72 23.95-40.37-1.33 58.1 20.85 92.27 65.65 102.91l3.1.44 18.2 26.62v-6.66l-1.34.89-3.55-4.88 4.44-3.55.44.9v-4l-7.98-11.98c.88-3.1-.45-8.42-3.55-15.97l-9.76-22.62 21.3 4.88V617l-22.63-5.33-4.44-12.86c9.32 4 18.19 7.1 27.06 9.31v-3.1c-9.32-1.77-18.63-5.32-27.94-10.2l-4-13.3c5.77-2.67 15.09-.9 27.06 5.31-8.87-6.65-18.18-9.76-27.94-8.87-2.22-9.31-4-19.07-4.88-28.83 3.99-4.43 10.64-7.1 20.85-7.1l-.9 9.32c3.56-10.2 5.33-25.28 5.77-45.25l11.98 5.77v-3.1c-13.75-6.66-29.72-12.87-47.46-19.96-16.41-6.21-28.39-18.63-35.49-37.26l-1.33-4h-3.1l1.33 3.55c-8.87 5.33-16.41 4-22.62-3.1v-.44h-2.66c.44 7.1.88 14.19 2.66 20.84a75.69 75.69 0 0 1-5.33-20.84h-3.1c1.77 13.75 6.2 24.84 14.2 34.6-3.11-10.65-5.33-20.85-5.77-30.17 4.88 3.55 10.2 5.32 15.52 4.44.89 27.06.89 55.44 0 84.72l-9.76 1.77 3.1-56.78c-3.98 38.15-6.2 69.2-6.65 92.71l-2.66 4.44c-3.54-.9-4.88-2.66-5.32-4.88-.44-13.31-.44-28.84 0-47.02l1.78-47.46-4 47.9c-.88 17.3-1.33 33.27-.44 46.58l.89 2.22c-1.78-.45-2.66 0-3.1.88-7.55-5.76-11.1-12.86-11.1-21.73.45-10.2 2.22-26.62 6.21-48.35 3.55-22.18 5.77-39.03 6.21-50.12l-8.87 48.34c-3.55 19.96-5.76 36.38-5.76 49.24l-9.32.44c-.89-4.88-.89-12.42.44-21.73l12.87-59c2.21-10.64 2.66-19.07 2.21-25.28-.44 11.53-3.99 29.28-10.2 53.23-5.76 23.5-8.87 38.59-8.87 45.24l-7.1 7.54c-2.66-1.77-2.66-6.65-.44-15.96 8.87-30.61 14.2-62.55 16.86-95.81h-2.22a582.83 582.83 0 0 1-16.86 95.8c-2.21 7.1-2.21 12.43-.88 15.53l-7.1.89-1.33-16.41c0-4 .89-9.76 2.66-16.42l4.44-15.97a855.85 855.85 0 0 0 11.08-63.42zm97.13 43.9l10.2 3.56.45 14.2-9.76 5.76zm-42.13-35.48l6.2-2.21c7.1 18.18 18.2 30.6 34.16 36.81l.45 25.73-10.65 7.1c-1.33-8.88-2.22-19.96-2.22-33.27-1.33 13.3-1.77 25.28-.89 36.37l-10.2 9.76a1255.87 1255.87 0 0 1-2.66-59c-1.33 19.96-1.77 40.81 0 61.66l-1.77 1.33-11.54.44c0-41.25 0-69.2-.88-84.72zm-3.55 87.39l13.3-.45c-7.1 6.21-14.63 16.41-22.62 31.05l.45-19.96zm10.64 9.75c.45-2.22.45-3.55 1.33-4.43l3.1-3.55c5.77-6.65 12.43-12.42 19.53-18.63 14.63-4.44 22.62-6.21 23.95-4.44l-3.1 4.88c-14.64 2.22-29.73 13.31-44.8 33.27zm-19.51-2.22l.44-5.76 6.21-1.33a91.3 91.3 0 0 0-6.65 7.1zm-28.83 10.65a26.4 26.4 0 0 0 4.43 15.08c2.22 3.55 4.44 5.77 7.54 7.54-17.3 30.6-29.72 63.88-37.26 98.47l-15.08 60.77c-2.22 10.65-10.2 16.41-23.07 16.41.9-27.94.45-54.11-.88-78.5l1.77-11.98a407.33 407.33 0 0 1 24.84-61.66c9.76-19.96 19.08-35.04 27.5-44.8 1.78 1.78 5.33 1.33 10.2-1.33zm49.23 15.52l-.89-13.3c16.42-20.4 30.61-31.5 43.47-33.71a30.7 30.7 0 0 0-1.33 8.87c-15.08 9.31-28.83 22.18-41.25 38.14zm3.55 18.64l-3.1-14.64c11.08-15.53 24.83-28.83 41.25-39.04v.9l1.33 12.41c-15.97 10.65-29.28 23.95-39.48 40.37zm-133.96 7.54c1.33-9.32 7.99-17.75 20.4-25.29 4.88-3.55 15.09-8.87 30.17-15.52l8.43-1.33.44.44c-24.84 28.39-39.48 57.66-44.8 87.38-2.66-3.99-6.65-7.98-11.98-11.09 5.77 6.66 9.76 12.42 11.98 17.75 2.66 7.54 2.22 15.96-.89 25.28 2.22 27.06 2.22 58.55.45 94.03 0 5.77-.9 11.1-2.66 15.97-13.31-6.2-29.28-6.65-47.47-.44a175.51 175.51 0 0 0-27.5 10.64c-5.32-3.54-12.42-3.54-21.73 0-8.43 3.55-19.96 11.1-33.71 21.74 30.16-19.07 47.46-26.17 52.34-19.96-14.2 6.65-28.39 15.53-41.7 25.73a429.88 429.88 0 0 1 73.2-35.49c26.16-9.76 47.9-4 64.3 16.41-9.3 0-17.73 1.78-23.95 4.88-6.65 3.55-12.86 8.87-18.62 16.86-7.99 10.2-14.2 19.07-18.19 26.61-4.44 9.32-7.54 19.52-9.76 30.6 7.1-22.61 16.86-40.8 28.83-54.55a81.21 81.21 0 0 0-5.76 30.16c-.45 7.98.44 18.63 2.22 31.94l-131.74.44c-3.1-24.4-3.1-44.8.44-60.77 3.55-19.07 11.98-37.26 25.73-54.56 0-4.43 1.33-7.98 3.54-11.53 1.34-2.21 4-5.32 7.55-8.87v-.44c17.3-5.33 37.7-11.54 61.2-17.3l4-1.33 2.22-3.55c7.54-17.3 13.3-32.82 16.85-46.13l.89-4c-.44-.44-1.33-.88-4-.88-5.32-.89-11.08-.89-17.73 0-1.34-7.54-1.34-13.3 0-18.19.88-3.54 3.54-7.54 7.1-11.53-8.44 4-11.98 14.2-9.77 30.16-10.2 1.78-21.29 5.33-33.7 11.53.88-11.08 5.32-23.5 13.74-36.37 4-11.97 13.75-23.5 29.28-35.48 9.31-6.65 22.62-14.64 40.36-23.95zm68.31-47.9l.89 4.87c-21.74 29.28-38.6 63.87-50.57 102.46 0-3.99-.89-7.54-2.66-10.64 6.21-33.71 23.51-65.65 52.34-96.7zm81.17 72.3c-3.54-4-6.2-8.44-8.42-13.31 15.08-25.29 27.05-38.6 36.37-38.6l4.88 18.63c-8.43.45-19.07 11.54-32.83 33.27zm-9.76-15.53l-5.32-14.2c13.75-19.07 27.06-32.38 39.92-39.92l2.66 14.64c-12.42 3.55-24.84 16.86-37.26 39.48zm59.89-106.9l-.45 5.76-7.54 1.78c-1.77-2.22-4.43-4-8.43-4.88l11.54-4.43zm-23.96 40.8l-.44-3.1c-.89-7.54.89-13.75 4.88-19.07 4.43-4.44 10.65-7.99 19.07-9.76l-1.77 25.28c-10.2.45-17.3 2.66-21.74 6.66zm4.88-36.8c4.88.43 7.99 2.2 8.87 4.43-3.99 1.77-7.54 3.99-10.2 6.2-2.66-1.77-9.76-.88-21.29 3.11 7.54-5.77 15.53-10.2 22.62-13.75zm11.1-7.1l-14.65 6.2V495.9zm-8.88 94.91l4.44 12.87c-3.55 0-7.54 3.1-12.42 8.87-3.55 4-7.99 10.65-13.75 19.96l-9.76-8.87c12.42-20.4 22.62-31.5 31.5-32.83zm21.73 58.56l3.11 4.88-4.88 2.66-3.55-6.21h.45c2.21.44 3.99 0 4.87-1.33zM342 613.45l4.88 12.86c-6.66 4-13.75 10.2-20.4 19.96-3.56-1.77-7.1-3.55-10.21-5.76 13.3-19.96 21.73-28.84 25.73-27.06zm6.2 15.52l4 9.32c-4.88 2.66-8.87 7.1-12.42 12.86l-10.65-3.55c5.77-8.43 11.98-14.63 19.08-18.63zm4.44 24.84l-9.76-1.77a29.24 29.24 0 0 1 10.65-11.53c4.43 9.75 4.43 14.19-.89 13.3zm12.87 13.31l-4.44 3.55-3.55-5.77 4.88-2.66zm-257.71 33.71l-.45 3.55c-1.77 7.54-3.55 14.64-6.65 21.29l-1.78 3.55-3.99.88c-19.07 3.55-35.93 9.32-51 16.86 1.32-11.53 6.2-22.18 14.63-32.82 18.19-7.54 33.27-11.98 45.24-13.3zm62.98 74.52v-3.1c4 2.21 9.32 2.65 17.3 2.21-8.87 9.76-14.64 16.41-16.86 19.96l-3.54-1.77zm-21.73 50.56c4.88-5.76 10.64-10.2 17.74-11.97l22.62-.89-3.55 7.1c-15.97.88-28.38 2.66-36.81 5.76zm-1.78 3.11c12.87-3.55 25.29-5.77 37.26-6.2l-3.99 8.42h-4l-2.65 2.22c-11.98.88-23.07 3.1-32.38 7.54l3.55-8.43zm24.4 7.98c-2.66 4-4.44 8.43-5.32 12.87-10.65.44-19.96 2.66-27.95 6.65l1.78-11.97c11.53-4.88 22.17-7.55 31.49-7.55zm-33.71 38.15v-15.08c11.09-4.88 20.4-7.1 27.94-6.65a70.89 70.89 0 0 0 0 13.75c-10.64 1.33-19.96 3.99-27.94 7.98zm28.39-5.32l2.21 11.09c-12.42 1.33-22.17 3.99-29.27 7.54l-.89-10.2c7.1-3.55 16.41-6.22 27.95-8.43zM140.17 896l-.45-4.88c7.54-3.55 17.75-6.21 29.72-7.54l4 12.42zm116.65-310.5l-2.66 6.66c-15.52 33.7-27.05 66.53-35.04 98.91l-5.32 31.5c-2.22 12.41-5.32 22.62-9.76 30.16-3.1 5.76-7.54 11.97-13.75 19.07a32.8 32.8 0 0 1-19.52-2.22l.44-6.2c14.2-1.34 22.63-7.1 25.29-17.75l15.08-62.1c6.65-31.5 19.07-64.32 37.26-98.91.44-1.33 1.33-1.78 3.55-2.22zM60.32 711.48l9.76-10.2c21.74-9.76 38.6-13.76 51.46-12.43 2.21.45 3.1.45 3.54 1.33l-1.33 4c-3.1 11.97-8.42 25.72-15.08 40.8l-2.21 4-4 1.33c-21.73 5.76-41.7 11.53-59.43 17.74l.44-8.43A128.02 128.02 0 0 1 71.4 738.1l29.28-7.1 1.33-3.1c4.44-8.87 6.65-17.3 7.98-25.73v-3.1l-3.54-.9c-8.88-.43-24.4 4-46.14 13.32zm220.01 57.22c2.22 0 4.44.88 6.21 3.1 1.33 1.33 2.22 3.55 3.1 6.21.9 4 .45 9.32-.88 15.53a43.69 43.69 0 0 1-7.54 15.08c-2.66 2.66-5.77 4.43-9.76 4.88-3.55-2.22-7.54-4.88-12.86-7.55 7.1-3.1 12.42-6.2 16.85-9.31l-19.96 7.54-19.51-10.2 22.17 13.3c9.76 5.33 15.97 10.65 19.08 15.97 3.55 5.77 1.77 12.87-5.77 21.3a237.36 237.36 0 0 0-19.07-10.2l-16.86-8 22.62 12.87c9.76 5.33 17.3 10.65 23.07 15.97 1.77 1.77 1.77 4.88-.44 8.87l-7.99 8.87c-3.55-3.1-8.87-6.65-15.97-10.2l-15.52-8.43 18.19 12.42c7.98 4.88 14.19 9.76 18.18 14.64 2.66 2.66 0 7.99-8.87 14.64h-18.63l14.2-5.32c-9.32 1.77-15.09 3.99-18.2 5.32h-69.19c-10.64-27.5-11.09-47.46-1.77-59.44l1.77-2.22c.45-.44 1.33-.44 2.66 0l1.78-.44 1.33-1.78c10.64-20.4 17.3-32.82 19.96-36.81 7.1-11.09 13.3-17.74 18.63-19.96 8.43-3.1 18.19-4.88 28.83-6.21 7.98-.44 17.74-.44 30.16-.44zm10.65 28.38c5.76-.88 10.2.45 12.86 4 3.1 3.99 2.22 8.87-2.22 14.63-1.77 11.1-4.88 19.08-9.76 24.84-4.43 5.32-9.3 7.99-15.08 8.43l-3.55-3.1 6.66-9.32c1.77-4.44 1.77-8.87 0-12.86-.89-2.22-3.1-4.44-6.66-7.99a19.22 19.22 0 0 0 8.88-4.88l8.87-13.75"/><path d="M486.15 472.84c-7.1 7.98-14.64 14.2-23.07 18.63-18.63 9.31-39.48 16.85-62.54 22.62-9.32 2.22-17.3 1.77-24.4-1.77l-8.87-3.55v3.1l8.87 4 25.29.88c11.97-3.1 22.62-6.21 31.93-9.76-1.33 18.63-.89 33.71 1.78 45.25l-.45-10.2c11.54-.45 19.96 2.66 25.28 7.98-1.32 9.31-4.87 19.07-9.75 30.16-14.2-.89-23.95 2.22-29.72 7.98 11.09-4.87 20.4-6.65 27.94-4.87l-5.76 11.08c-24.84 12.87-50.13 16.86-75.4 10.65v3.1c24.83 5.77 48.78 2.67 73.18-9.3l-7.99 13.3c-21.73 6.65-43.46 8.43-65.2 4.88v3.1c20.4 3.55 41.25 1.77 62.99-4.43l-9.32 17.74c-4.43 9.31-4.88 15.52-.89 17.74a240.1 240.1 0 0 1-25.72 41.7h-6.66l-20.4-27.06v4l3.1 4.43-3.1 2.21v2.66l4.44-3.54 2.66 3.99-4.44 3.1-2.66-3.55v4l15.08 17.74L375.7 727c-.89 5.32.44 8.87 4 10.65-1.78 23.95-4.89 55.44-9.77 94.47-1.77 14.2.45 25.73 6.21 35.49l8.43 15.08c1.77 3.55 2.66 6.21 2.22 7.99 0 1.77-1.33 3.54-3.1 5.32h-16.42v3.1l365.05-.44-3.1-23.07c6.65-19.96 7.54-38.14 2.66-54.56-3.1-52.33-14.2-86.93-32.38-103.34-6.21-46.58-22.18-74.52-48.35-84.28-7.54-13.3-18.19-25.73-31.5-36.82-14.18-11.09-29.71-18.63-47-23.95-3.11-.44-5.78-2.66-8-5.77-1.32-19.96-3.54-59.88-6.2-119.31h-3.11c2.22 58.1 4.44 98.02 6.21 120.2l.89 1.33-6.66-5.32-2.66-40.36v38.58l-7.98-4.43c-.89-24.84-.89-61.66.89-110h-.89c-3.1 41.25-4 77.17-4 107.78l-11.53-4c-.88-18.18-.88-46.57 0-85.16-2.66 25.29-3.99 53.23-3.99 83.84l-15.52-3.55-.45-.89a871 871 0 0 1-.88-41.25l-.44-41.7-2.67 80.3c-3.99-1.78-7.98-3.11-11.97-3.11l-1.33-55.9-2.67 55.9-4.88 1.33-6.65-8.43-.88-36.37-2.67 32.38-7.54-7.54c-.44-11.1-1.33-19.08-2.66-24.4.44 8.43.44 15.53 0 22.18-4.88-4.44-11.53-9.32-20.85-15.52l20.4-9.32c16.42-8.43 28.84-20.85 36.38-37.7 6.2 1.33 12.86.44 19.52-3.55l-3.1 27.05c5.76-9.31 9.75-19.96 11.53-32.37h-2.67c-.89 7.1-2.66 14.19-4.88 21.29l2.22-21.3h-2.66v1.34c-2.22 2.66-5.32 4.43-9.32 5.32l-9.3-.89 2.65-5.76h-3.55l-1.77 3.99c-2.22 7.1-6.65 14.2-12.86 21.29zm-35.05 48.79c2.67-1.78 6.21-2.66 10.2-2.22l13.76 13.3c-8.87-3.1-13.75-3.98-15.09-2.65a54.95 54.95 0 0 0-8.87-8.43zm7.99-4c-4-.44-7.1.45-9.76 2.67l-8.87-6.2c1.33-2.23 3.55-4 7.54-4.89zm4.88 25.3c0-4-.89-7.55-3.1-11.1 2.21-.44 7.53.45 16.4 3.1l6.22 8.88c4.43 6.65 7.98 11.98 9.75 16.41-8.43-6.65-18.18-12.86-29.27-17.3zm-3.1.44l-.45 3.99c-5.32-5.33-13.75-7.99-25.73-7.99 0-8.87.45-17.3.89-25.28l17.3 12.42c5.77 5.77 8.43 11.09 7.98 16.86zm-19.97-39.04l5.33 3.55c-3.11.44-5.77 2.22-7.55 4.88l-3.1-1.78.44-4.88zm-3.1 105.57l4.88-8.87c14.63 10.2 25.28 21.73 31.93 35.04l-3.55 2.66-7.54 4.44c-4.87-10.2-13.3-21.3-25.72-33.27zm15.08-27.5l3.55-9.32c16.41 13.75 27.94 27.5 35.04 42.59l-4 6.2c-8.86-13.75-20.4-27.05-34.59-39.47zm4.43-11.98l3.55-10.64c15.08 9.76 27.5 20.85 37.26 33.7a45.28 45.28 0 0 1-5.32 19.08c-7.54-14.64-19.52-28.83-35.49-42.14zm-13.3 28.83l7.54-14.63c13.75 12.41 25.28 25.72 34.15 39.47l-9.31 10.2c-9.76-16.4-20.85-28.38-32.38-35.04zm17.3-41.7l2.21-12.41c9.32 4 19.52 10.2 31.05 18.63 3.1 9.31 4.44 18.63 4 27.06-9.76-12.87-22.18-23.96-37.26-33.27zm-81.62 129.09l-3.55 3.1-4.88-5.32 4.44-3.1zm15.08 10.64h-7.98c1.33-1.77 2.66-3.1 4.43-3.1 1.33 0 2.66.88 3.55 3.1zm-8.87-3.1l-2.66 3.55-5.77-6.21 3.55-3.11zm12.86 4.43l-2.21-3.99 3.54-4.88 3.55 3.1zm62.55-54.11l-10.65 3.1a114.62 114.62 0 0 0-19.52-26.17l5.33-9.76c11.97 12.42 19.96 23.51 24.84 32.83zm-42.14 12.86l4.43 2.66-3.1 6.21-4.44-2.66zm.88-1.77l1.78-3.55 3.55.89h1.33l-2.22 5.32zm11.1-5.33h-5.33c-5.77-.88-6.65-5.76-2.22-15.08l6.21-11.53c8.87 8.43 14.64 16.86 18.19 24.84zm-11.54 18.19l-2.66 4.88-4.88-3.1 2.66-4.88zm-6.65 11.09l-4.44-3.1 2.66-4.44 4.44 3.55zm-1.33 2.22l-3.1 3.99-4-3.1 2.66-4.44zm-4 5.76l-2.66 3.55-3.99-3.1 2.66-3.55zm271.02 72.75c7.54 7.54 13.75 12.86 18.19 15.52v31.94l18.63-15.53 11.09 6.66 1.33 13.75c-13.3 3.55-24.4 2.22-33.27-3.1-9.31-6.22-15.08-16.42-17.74-31.5-2.22-12.86-.45-23.95 5.32-31.94 4.88-7.54 12.42-12.42 22.18-14.19l-4.44 19.96a92.19 92.19 0 0 0-21.29 8.43zm26.62-31.05c-11.54 1.77-19.96 6.65-25.29 15.08-5.76 8.43-7.54 19.52-5.76 33.71 2.21 15.97 8.43 27.06 18.18 33.71 9.32 5.77 21.3 7.1 35.93 4v5.76l.44.44c-14.19 5.33-27.5 3.55-40.36-5.76a49.54 49.54 0 0 1-14.2-14.64c-3.98-6.21-6.2-12.42-7.53-19.52-4.44-28.39 5.76-49.23 31.49-61.2zm-2.66 24.4l4.43-21.3c9.76 15.09 16.41 36.38 19.52 63.43l-11.54-6.65-15.52 13.75v-28.39l-16.85-13.3a208.5 208.5 0 0 1 19.96-7.55zm-110.9 30.16l-.88-.89c10.2 2.22 17.74 2.22 23.95 0-1.33 12.42-4.44 22.62-10.2 31.94-3.1-12.42-7.1-22.63-12.87-31.05zm-93.59 85.6l-3.1-1.33v-2.66l3.55-4.88 2.66-2.21 3.99.44c30.6 7.54 56.33 19.96 76.73 36.82h-29.27c-20.85-11.98-39.48-20.85-54.56-26.17zm156.58 26.18c11.09-5.77 18.63-5.77 22.18 0zm-268.36-196.5c3.1 3.54 6.21 3.54 9.32.44l2.66 25.28c0 4-.89 6.66-3.1 9.32a10.7 10.7 0 0 1-7.55 3.1c-3.1 0-5.32-.88-7.54-2.22a10.09 10.09 0 0 1-2.21-7.98c1.77-10.2 4.43-19.52 8.42-27.95zm64.76-48.35a57.74 57.74 0 0 0 21.3-9.32c10.64-7.1 18.62-17.3 23.5-30.16 7.1-15.97 7.1-32.38.45-49.24l-2.22-4.88c17.74 14.2 31.94 39.92 42.58 78.52 14.2 50.12 23.96 85.16 29.72 104.23 2.22 7.55 5.77 15.53 10.2 23.51l12.87 20.85c5.76 9.76 10.64 23.07 14.63 40.37 5.33 21.73 7.54 45.24 7.99 70.97h-25.73c-23.06-19.08-50.57-32.39-82.06-39.93l-3.55-.44-3.1 2.22c-3.1 2.66-4.88 5.76-5.32 9.31-.45 1.78-.45 2.67 0 3.1l3.1 1.34c18.19 6.65 35.49 15.08 52.79 24.4L393 896c1.77-7.1 1.77-12.42-.9-17.3l-12.85-20.85c-1.33-3.99-2.22-9.31-1.78-15.08l11.54-103.35c6.65-1.33 10.2-4.44 11.08-10.2l-.88-27.06c13.3-15.97 23.06-32.38 29.72-49.23h2.21zm119.77-74.96l1.33.44c16.85 36.37 28.39 63.43 35.04 80.28 10.2 27.95 14.2 47.02 11.53 57.22l-39.03-114.44c-4-11.53-8.43-20.4-13.75-26.61zm-13.75-6.66c7.1 5.32 13.3 14.2 18.18 26.62l43.03 125.97c4.88 13.75 5.76 27.94 4.43 42.58-3.99 4.88-7.98 7.54-13.3 6.65-5.33-.44-10.2-4.43-15.08-11.53-5.77-7.54-9.76-17.74-12.87-30.6l-7.54-33.27c-7.98-29.28-15.52-55.45-23.95-79.4-7.99-22.18-14.2-37.26-19.07-44.8-6.66-10.2-11.98-17.3-16.86-21.74 18.19 4.88 32.38 11.1 43.03 19.52zm-50.13-21.73c6.21 4.43 13.31 12.42 21.3 23.95 4.87 7.1 11.53 22.18 19.51 45.24a1291.48 1291.48 0 0 1 23.07 78.96l7.54 34.15c3.54 12.87 7.54 23.07 12.86 30.6 5.77 7.55 11.09 11.98 16.86 13.31 5.32.9 9.75-.44 13.75-4.87l-.9 3.54c-1.32 5.33-4.87 8.43-10.64 8.87l-19.51-1.77c-2.22 0-5.77-6.2-11.98-18.63-5.77-11.53-9.31-18.63-10.2-21.73l-28.83-102.9c-12.87-44.8-28.4-72.31-47.46-82.96l-5.77-9.75c6.21-2.67 13.3-1.34 20.4 3.99zm133.96 163.23c2.22-11.98 2.22-24.84 0-39.92.89 31.5-4.44 55.44-15.08 71.86-.89-7.1-2.22-14.2-4.44-20.85v-.45c6.21-19.51-9.31-67.42-45.24-144.16 31.94 11.1 56.33 30.61 72.74 59 15.53 6.21 27.06 17.3 35.04 34.15 5.33 11.98 9.76 27.95 12.42 48.8-25.72 11.97-36.37 33.7-31.93 63.43.89 8.42 4 15.52 8.43 22.17a53.15 53.15 0 0 0 15.96 15.53c6.21 3.55 12.87 6.2 19.96 6.65 7.1.89 14.2 0 20.4-2.66 4 15.53 2.67 32.82-3.1 51.01l2.22 20.4h-48.35c-.88-4.43-4.43-6.65-10.64-7.1-6.21 0-12.87 2.23-19.96 7.1H627.2c6.2-7.1 15.08-15.52 27.06-25.28-12.42 8.43-23.07 16.86-31.94 25.29h-7.1a450.91 450.91 0 0 0-7.98-70.97l-1.77-6.66c6.65-10.2 10.64-22.18 11.53-35.93 3.99-1.77 6.2-4.88 7.1-9.31l.44-3.55c11.09-7.1 21.73-22.62 32.82-45.69-12.86 20.85-23.5 35.04-31.93 41.25l.44-16.4a95.08 95.08 0 0 0 15.08-37.71zm-259.48 27.94l5.32.89c-1.78 13.3-5.32 42.58-10.65 87.83l-1.33 16.4c0 5.77.45 10.65 2.22 14.65.89 3.1 3.1 6.65 6.2 11.53l7.1 10.64c2.67 4.44 2.67 9.76 0 15.53h-4.43l3.1-5.32c0-1.78-.88-4.44-2.21-8.43l-8.87-15.53c-3.55-6.65-5.77-12.86-6.21-19.07-.45-4-.45-8.87.44-15.53 4.44-39.03 7.54-70.08 9.32-93.59"/><path d="M578.4 121.1c-.88-17.75-9.3-35.05-23.95-51.46-14.63-15.53-32.82-27.95-55-37.7-27.5-11.54-55.89-18.2-84.72-19.52 0-4-1.77-7.1-6.2-9.32-4-2.21-8.88-3.1-14.65-3.1-5.76 0-10.64 1.33-14.63 3.55-4 2.22-5.77 5.76-4.88 9.76-31.94 6.65-59 15.08-81.18 25.72-44.35 21.3-70.97 47.46-79.84 78.07-17.3 6.65-28.83 15.97-34.6 27.94-5.76 12.43-5.76 26.62 0 43.03 4 10.65 8.88 23.5 15.53 39.03l16.86 38.15c1.33 1.33 3.1 2.22 4.88 1.77 0 11.1.88 19.96 3.1 26.62-3.55 8.43-4 19.07 0 31.93-3.1 7.1-3.55 13.76-1.33 20.85-11.09 13.3-10.2 37.26 3.1 71.86l-3.54 29.28h3.54l2.67-26.62 7.1 7.99-1.78 18.63h2.22l1.33-16.42c5.32 5.77 11.09 11.1 17.74 15.08v1.34h3.1c-1.77-15.53.45-33.72 6.66-53.68l3.1 7.99c-5.32 13.3-7.54 28.83-7.1 45.69h2.67c-.45-5.77 0-11.54.44-17.3 5.77 5.76 8.87 7.54 10.2 5.32 1.33-3.55.9-7.99-.44-13.3l-5.77-12.43 1.33-4.43 15.53 42.14h3.1l-35.48-93.6c-2.22-5.32-4-12.42-6.21-21.29l4.43-1.77 5.33 2.66c1.33.44 2.66 0 4.43-1.77 2.22-2.22 3.55-4.88 4.44-8.88 1.77 4.44 4.43 6.21 7.98 6.21 2.22 0 4.44-.88 6.21-3.55l2.66-7.54c1.33 3.55 4 6.21 7.1 7.54 1.77.45 3.55 0 4.88-1.77 1.77-1.33 3.1-3.55 4.43-6.65a4.66 4.66 0 0 0 4 2.22c2.66 0 4.88-3.11 7.1-8.43 1.32 3.55 3.99 5.32 7.98 5.32 3.55 0 6.2-1.33 7.98-5.32 2.22 2.66 4.44 3.99 7.1 3.99 3.1.44 6.2-2.22 9.31-7.54 1.33 5.76 3.55 8.43 7.1 8.43 3.1 0 4.88-.9 6.21-2.67 1.78 3.11 4.44 4.88 7.98 6.22 3.11.44 5.77-.9 8.43-4.44l.9 1.33c2.2 1.33 4.43 2.22 6.64 1.77 2.22-.44 4-.88 5.77-2.66l4.44 2.22c3.54.44 6.2-.44 8.87-4l2.22 1.34c2.66 2.22 6.2.44 10.64-4.44l3.1 2.22c3.11 1.33 6.66.89 10.2-2.22l2.23 1.78c3.1 2.22 6.65 1.33 10.2-1.78 2.66 4.88 7.1 5.33 13.75 1.78l.44.44c1.33 3.1 4 4 6.66 3.1 3.1-.44 4.43-2.21 5.32-4.43l1.33-7.98 16.85-10.65 25.73 4.44c1.78 3.55 2.66 9.76 1.78 18.63-.45 7.98 0 12.86 2.21 14.63 3.1 2.66 5.77 1.34 9.32-3.99 1.33 4.44 3.1 7.1 5.76 8.43 2.22 1.33 4.44.89 6.66-.89 0-.44.44-.44.44-.44l.45 1.33c2.66 6.21 5.76 7.1 8.87 3.55l5.32.44-41.7 108.68h3.55l3.1-7.55c3.11.45 7.55-.88 13.31-3.99l-.44 11.54h2.66c1.33-17.75-.89-28.4-5.76-31.94l3.54-10.2c5.33 11.09 7.1 25.28 4.88 42.14h2.67l.44-3.11c11.09-7.98 19.96-18.63 27.5-32.38l-.89 35.49h3.1l1.34-43.03c3.55-7.54 5.76-15.97 7.54-25.28a97.65 97.65 0 0 0 .44-25.29l6.66-45.68c.88-8.43.88-22.18.44-42.14 15.97-36.37 26.17-66.54 31.05-90.05 5.32-27.94-4-46.13-27.5-55zm-86.04 109.55c18.18 4.44 40.8 14.2 68.3 28.84 3.55 11.97 1.33 21.73-6.65 28.83-6.65 4.87-14.64 6.65-23.5 3.54C487.02 279 440 272.35 389.44 271.9c-35.93 0-76.3 6.21-119.76 18.63l-24.4 2.66c-8.43-.44-13.3-2.66-14.64-7.1-1.77-3.99-2.21-8.86-2.21-14.63l.44-15.08c13.75-9.76 33.27-18.19 59-25.29 28.38-7.98 55.88-12.41 83.83-13.3 42.13 0 82.5 4.43 120.65 12.86zm71.41 30.6l7.98 4.44v18.19c-3.99 7.98-10.64 13.3-19.07 15.97l-30.6-.89c-84.28-22.62-169.9-21.73-256.39 2.66-15.52 4-29.71 1.33-43.02-7.54-1.33.9-2.22-3.55-3.55-12.42-.89-8.87-.89-14.64 0-17.3l7.1-6.2-.9 14.63c.45 5.32.9 9.76 2.67 13.75 1.78 6.21 7.1 9.32 15.53 10.2 7.1.45 15.52-.44 26.17-3.55 43.91-12.42 84.27-19.07 120.2-18.62 48.35.44 95.37 7.1 140.61 20.4 9.32 2.66 17.75.89 24.84-4.44 8.87-6.65 11.53-16.85 8.43-29.27zm-.89-5.32c-8.87-14.63-22.18-26.6-40.8-35.92 16.4 11.53 28.83 23.06 37.7 35.48a273.46 273.46 0 0 0-66.54-27.5c-35.04-9.31-75.4-13.3-121.09-12.86-26.17.44-49.68 3.55-70.53 8.87-34.15 8.87-59 18.63-74.96 30.16l-.44-1.33c7.54-10.65 19.07-20.85 35.04-31.5-12.86 4.89-24.84 14.2-36.82 28.4-11.09-19.52-20.84-45.25-30.6-76.3-3.1-11.09-1.33-19.96 5.76-26.61 15.53-15.97 44.8-27.5 87.83-33.71 48.35-7.54 100.24-8.87 155.25-4.88 45.24 3.55 86.93 12.86 125.53 27.94 21.29 7.99 28.38 24.4 20.84 49.24-8.42 28.39-17.3 51.9-26.17 70.52zm9.76 7.1l-7.98-4.88c9.76-18.63 18.63-42.58 27.05-71.85 4-13.31 4.44-24.4.45-32.83-3.55-8.87-11.53-15.52-23.51-19.96a471.7 471.7 0 0 0-125.53-27.94c-53.67-4.44-105.57-2.66-155.7 4.88-45.23 6.65-74.95 18.18-89.15 33.7-7.54 8-9.76 17.75-6.65 29.28 10.64 35.93 21.73 62.99 33.27 82.06l-8.87 8.43-2.22-.44-15.97-36.82a439.36 439.36 0 0 1-15.08-37.26c-5.77-16.85-6.21-31.5-.89-42.58 5.32-11.1 16.41-19.96 32.82-27.06 27.95-11.53 62.1-19.07 103.35-23.5 50.57-4.89 102.91-4 157.91 3.1 39.92 4.88 73.2 12.86 100.25 24.4 12.42 4.87 20.4 11.53 24.4 19.51 3.99 7.98 4.88 19.07 1.77 32.82-4 22.18-14.2 51.46-29.72 86.94zM377.92 12.86a10.2 10.2 0 0 1 5.32-7.54c2.66-1.77 6.2-2.66 10.64-3.1 4 0 7.55.88 10.65 2.66 3.55 1.77 5.77 4 6.65 7.54a136.85 136.85 0 0 0-33.26.44zm81.17 286.99c.44-4 1.33-7.1 1.77-9.32l11.54 1.33a176.29 176.29 0 0 0-13.31 7.99zm-28.39-11.98c-1.33 9.32-1.77 15.53-.44 19.52-2.67 3.55-5.33 4.88-7.54 3.1-4-3.1-4.88-11.08-2.22-23.06zm1.33 11.54l.89-11.1 11.09.45c-1.78 8.87-1.78 15.52 0 20.85-4 3.1-7.54 3.1-9.76-.45a21.14 21.14 0 0 1-2.22-9.75zm-27.06-12.43c-2.22 10.2-2.66 17.3-.88 21.3-4 4.43-6.66 5.76-8.43 3.55-4.88-5.77-5.77-14.2-3.55-24.85zm2.66 0h9.76c-1.77 10.65-1.33 17.3 0 21.3-2.21 2.66-4.88 3.55-7.54 2.21-4.43-2.66-5.32-10.64-2.22-23.5zm-18.62 0l-.9 12.43c0 4.87.9 8.87 2.67 11.53-1.77 3.1-4 4.43-5.77 3.99-3.54-1.78-5.76-4.44-7.1-9.76-.88-4.88-.88-10.64.45-17.74zm-23.51 14.64c-.45-2.21 0-6.65.88-13.3l8.43-.45c-1.33 11.54-.44 19.52 2.66 24.84a4.66 4.66 0 0 1-3.99 2.22c-1.33.44-3.1 0-4-1.33-2.65-3.1-3.98-7.1-3.98-11.98zm-.9 11.1c-1.77 2.2-3.54 3.54-5.76 3.54-3.99-.44-6.65-3.1-7.54-8.87-.88-3.1-.88-8.87-.44-17.74l12.86-1.33c-1.33 11.97-1.33 19.96.89 24.4zm-26.16-21.74l9.76-.89c-.9 8.43-.9 15.08 0 19.52-.9 2.66-2.66 3.54-4 3.1-3.1-.44-4.87-3.1-5.76-7.54-.45-2.66-.45-7.1 0-14.2zm-22.62 3.55c0 5.32 1.33 10.2 2.66 13.75-1.77 3.55-3.55 5.32-6.21 5.32-3.1 0-5.32-1.77-6.21-5.32-.89-2.22-.89-6.66-.45-11.98zm5.76 13.75h-.44c-.89-2.22-2.22-7.1-3.1-14.2l16.85-2.66.89 11.09-3.55 7.1c-1.78 1.77-3.55 2.66-5.77 2.22-2.21 0-4-1.34-4.88-3.55zm-18.63-11.1c-.44 4 0 7.1 0 9.77-1.77 5.76-3.54 8.87-5.76 9.31-1.78 0-3.1-1.33-3.55-5.32-.45-2.22-.45-6.21-.45-11.98zm-14.19 23.96c-1.33 1.33-3.1 1.77-4.88.89-2.66-1.33-4.88-3.55-5.32-7.1l-.89-12.42 13.3-3.1c-.44 6.65 0 11.08.9 14.19zm-13.75-18.19l.44 11.1c-2.22 9.75-5.32 14.19-8.42 12.86-2.67-.89-4.88-3.1-5.77-7.1-1.33-2.66-2.22-7.1-2.22-13.3zm-46.13-1.33a33.55 33.55 0 0 0 8.87 3.55c0 11.98 1.78 19.52 5.77 23.95-4.88 3.1-8.87 1.33-11.54-4.88-2.66-4.87-3.54-12.86-3.1-22.62zm.44 31.05c2.22.89 4.88.89 7.54 0h2.22c1.33 6.66 2.66 11.98 4.44 16.41-5.77-3.99-10.2-6.65-14.2-6.65a18.2 18.2 0 0 1 0-9.76zm4-1.77c-2.22 0-4.44-.45-7.1-2.22-2.22-1.33-4-2.66-4.44-4.88-2.66-10.2-3.1-19.52-.44-27.06l4.43 3.1c-.44 15.98 1.78 26.62 7.54 31.06zm25.28-11.53c-2.66 8.42-4.88 12.42-7.99 11.53-3.99-1.78-7.1-4.88-8.42-9.32-1.34-3.55-1.78-8.87-1.78-15.52l16.41.89c0 4.88.9 8.87 1.78 12.42zm-35.04 53.67c.44-6.66 2.21-9.76 5.32-8.88 2.22.45 5.32 4 9.76 10.65-11.98 9.32-11.53 21.74 1.33 37.7-4.44-8.42-6.66-15.08-7.1-19.96-.89-6.65 1.78-11.53 7.54-15.08l9.76 15.53c-9.76 7.54-9.32 15.97 1.33 25.28a115.73 115.73 0 0 0-1.33 24.4c-4.88-2.22-10.64-7.55-17.74-15.53l-4.88-5.32a23.43 23.43 0 0 1-4.44-6.21c-5.32-14.2-8.43-25.28-9.31-34.15-1.78-13.76.44-24.84 7.1-33.27 2.66-4 7.1-4.88 12.41-2.22 3.55 1.33 7.99 4.43 11.54 7.98l13.75 35.93-2.22 7.98-18.63-28.38c-4.44-6.21-7.54-8.87-9.76-8.43-4.43 0-6.65 4-6.65 11.09 0 4 .88 11.53 3.1 21.73-.88-10.2-1.33-16.85-.88-20.84zm3.55-41.25c-.9 3.54-.9 7.1 0 10.2-2.22.44-4.44.88-6.22 2.21-1.77-5.32-1.33-11.09.45-16.4zm24.39 63.87l3.55 5.77-3.1 13.74c-8.43-7.54-8.43-14.19-.45-19.51zm15.97 36.37c0 2.66-2.66.89-7.98-5.32l2.66-12.87c3.99 7.55 5.76 13.75 5.32 18.2zm295.86-133.51l8.42-8.43c-.88 16.86-3.1 37.26-6.65 61.66-6.2-7.55-14.2-8.88-22.62-4l3.55-9.76 1.77-1.77c6.21 1.33 10.65-.89 13.3-6.65 2.67-6.21 3.11-16.86 2.23-31.05zm-19.08 6.2l7.99-1.32c.88 9.31 0 17.74-2.22 24.84-2.66 7.54-6.21 10.2-11.53 8.42 3.54-6.2 5.76-16.85 5.76-31.93zm10.2-2.21l6.66-2.66c.88 24.84-2.66 36.37-11.09 34.15 3.55-5.76 5.32-15.97 4.43-31.5zm-12.42 2.22c-.44 14.64-2.21 24.4-4.87 30.16-2.67 5.32-5.33 4.44-8.43-2.66 4.43-5.32 6.2-14.64 6.65-27.95zm-22.62-3.1l13.31 2.65c.44 11.54-1.77 20.4-5.77 26.17-1.77 2.22-3.54 3.1-5.32 2.22-1.77-.44-3.55-3.1-4.88-7.98l.89-3.1c1.77-10.65 2.22-17.3 1.77-19.97zm-5.32 21.73l-4 5.76c-1.32.9-2.65.45-3.54-1.77-.89-1.78-.89-6.21-.44-13.3.44-6.66-.45-12.43-1.78-16.42l12.87 3.1c.88 7.99-.45 15.53-3.1 22.63zm14.64 60.77c2.22-2.66 4.43-3.55 6.65-3.11 10.65 1.77 11.53 10.65 3.1 26.61-1.32-7.98-6.2-12.42-13.3-12.86zm5.32-6.22l-3.1.9 10.64-27.5 2.22-1.78c7.1-3.55 13.75-2.66 19.07 3.1 1.33.89 1.78 2.22 2.22 4 1.33 6.65 1.33 14.63 0 22.62a86.58 86.58 0 0 1-7.1 23.06 80.4 80.4 0 0 1-11.53 21.3l-17.74 17.74c.88-8.43.44-16.42-.89-24.4-1.33-6.65-3.55-11.53-5.77-14.64l2.22-5.32c6.66.44 11.09 4.88 12.42 13.3l-6.2 10.65c8.86-10.2 13.74-19.51 15.52-27.5 1.33-8.43-1.78-13.3-8.87-15.08 1.77-5.77 4.87-9.76 9.3-11.53 4.45-1.78 6.66 0 7.55 5.32.44 4.44 0 10.64-2.22 19.07 7.54-20.4 5.77-29.27-4.43-27.06-5.33.9-9.76 5.33-13.3 13.75zm-13.3 54.56a24.48 24.48 0 0 1-12.42 5.33l7.53-19.08c3.11.89 4.88 5.77 4.88 13.75zm27.5-364.6c15.52 15.08 24.4 32.37 27.05 51.9-34.6-11.54-67.42-19.08-99.36-23.52l-82.06-6.2a739.5 739.5 0 0 1-2.21-70.53 470.32 470.32 0 0 0-.89 70.52l-72.75 3.55c-41.25 4-74.51 11.53-101.13 22.18a110.57 110.57 0 0 1 31.05-44.36c11.98-10.2 27.5-19.96 47.46-29.72 26.62-12.86 53.23-21.29 80.73-25.72l38.15-.45a236.27 236.27 0 0 1 83.83 19.52c20.4 8.87 37.26 19.52 50.13 32.82zM451.99 313.6c-2.22.44-3.55-.45-3.99-1.77-2.66-5.77-3.1-13.31-1.33-23.07l11.53 1.77-3.1 20.85-3.1 2.22"/><path d="M545.14 447.56h.89l.44-17.3zM387.67 462.2c-2.21-4.89-1.77-11.54 2.22-20.85-8.87 11.53-9.31 18.18-2.22 20.84M418.28 474.61c-13.3 7.54-27.06 8.88-41.25 4.44 13.3 7.98 27.06 6.65 41.25-4.44M478.16 330.45l-6.2.45c-22.19 4-35.94 22.62-41.7 55-2.22 14.2-2.22 24.4-.45 31.05 2.66 8.43 8.87 13.3 18.63 15.52 22.62 1.78 35.93-.88 40.37-8.42l5.76-11.54 4-.88-3.11-.9 2.22-5.31 4-1.78h-3.56l2.22-8.43c2.22-.44 3.55-.88 4-2.21h-3.56l1.33-7.54 8.43-1.78-7.98-.44v-7.99c5.77-.44 9.31-1.33 10.2-2.66l-10.2.45-.89-8.43c5.32-1.33 9.76-3.1 13.3-5.32l-13.74 2.21-2.66-9.75c5.32-2.22 9.76-4.88 13.3-7.99l-14.2 4.88-.88-2.22c-1.77-4.88-4.43-8.87-7.54-11.53-4-5.77-10.64-8.87-20.4-8.87-9.32.44-16.41 3.55-20.4 9.76 10.2-6.66 20.4-8.43 29.71-5.33zm-19.96 32.83c5.32 2.66 8.43 8.87 9.76 18.19.89 8.87 0 17.74-3.1 27.05-4 9.76-9.32 16.86-16.86 20.85-11.53-1.33-17.3-10.2-16.86-26.17 0-9.32 2.22-19.96 6.21-32.82 7.99-7.99 15.09-10.2 20.85-7.1zm8.43 5.76c-2.22-5.76-6.21-8.87-11.1-9.75-5.31-.45-11.08 1.77-17.29 7.1 6.65-18.2 17.74-29.28 34.16-32.39 9.31-1.33 15.96 2.22 20.84 11.98 5.33 11.53 7.1 24.84 5.77 39.48-1.77 15.08-6.21 27.5-13.75 37.7-4.44 5.32-15.53 7.54-33.27 6.2 4.88-2.65 8.87-7.09 11.53-12.4 8.43-17.31 9.76-32.83 3.1-47.92M324.69 320.25l-11.09-.44c-9.32.89-15.08 6.21-17.3 14.2-1.77 2.65-4 5.32-5.77 8.42-4.88 0-9.75-3.1-14.2-8.43 0 4.88 4.45 8.43 13.32 11.1-.89 1.32-1.78 3.98-3.1 7.53-5.33.44-9.77-.88-13.32-4.88-.44 4 3.55 6.66 12.42 7.99l-1.77 9.31c-3.55.45-7.54-.44-11.53-2.22.44 2.67 4.43 4.44 11.09 4.88l-.45 7.99-8.87-.89c.45 2.22 3.55 3.55 8.87 3.1v6.22l-8.42-.45c1.33.89 3.99 1.78 8.87 2.22l.44 6.2h-6.2c.43.9 2.65 1.78 6.64 2.67l.9 3.1-5.77 1.34 6.2.88c4 14.64 12.87 24.4 25.29 29.28 11.97 4.43 24.4 3.55 37.26-3.1 3.55-1.78 5.32-8.43 5.76-20.4 0-11.1-1.33-23.08-4.43-36.38-3.55-14.2-7.99-25.29-13.3-33.71-6.66-9.32-13.32-13.75-20.86-11.98a34.27 34.27 0 0 0-13.75 5.32c5.77-8.42 16.41-9.75 32.38-3.99zm-8.87 6.66c5.32-.89 10.64 1.33 15.52 7.98 4.88 5.32 8.87 13.75 12.42 24.4-9.76-.9-17.3 1.33-22.18 6.65-4.87 4.44-7.1 11.09-7.54 19.52-.44 7.98.9 15.52 4 23.95 3.1 7.98 7.1 14.64 11.97 19.07-12.86 1.78-23.95-2.22-32.82-12.42-8.43-9.76-12.42-23.06-11.1-39.47 1.34-14.2 3.56-24.4 6.66-31.5 4.88-10.2 12.42-16.41 23.07-18.18zm1.33 59.43c0-8.43 2.22-14.63 6.65-19.07 4.44-5.32 11.53-7.1 20.4-5.77 4.88 16.86 7.55 29.72 7.99 38.6.44 18.62-5.77 28.38-19.07 28.38-4.88-4.43-8.87-10.64-11.98-18.63-2.66-7.98-4.43-15.97-4-23.5M59 715.91c-.45 0-.9 0-.9.45l-5.76 19.51c-.44.89 0 1.33.89 1.33l1.33-1.33 4.43-12.42 2.22 3.55c1.33 1.33 2.66 1.33 4.44 0l8.87-9.76-3.55 15.53c-.44.88 0 .88.89 1.33l1.77-.89 5.77-21.73-1.33-1.34c-.89-.44-1.33 0-2.22.45l-10.2 11.98c-1.78 2.21-3.1 2.21-4 0l-1.33-6.21c-.44-.45-.44-.45-1.33-.45M94.48 703.5c-1.33-.45-2.22.43-3.1 1.77l-12.43 19.96c-.44.44 0 .88.9 1.33l2.2-.45 4-5.76h7.54l-.44 4.43c0 .89.44 1.33 1.77 1.33l1.78-1.33-.9-19.96c0-.89-.43-1.33-1.32-1.33zm-2.22 5.76l1.33 4.88.45 2.22-6.21.44c-.45 0 0-.89.88-2.22l3.55-5.32M563.77 157.02c0-4.43-1.78-7.54-4.88-8.87-3.55-1.33-6.65 0-8.87 3.55-10.2 13.3-19.96 29.72-30.6 49.23-.9 1.78-1.34 3.11-.45 4.44a4.5 4.5 0 0 0 2.66 3.1l4 .45 3.1-2.66c1.33-4 3.55-7.54 6.2-10.65l10.65-.44c5.33 1.77 7.54 4.43 7.54 7.54v12.86c0 2.22.9 4 1.78 5.32.88 1.33 2.22 1.78 3.55 2.22l3.54-1.33c1.34-1.33 1.78-2.66 1.78-4.88zm-11.53-3.55c1.77-2.22 3.54-3.1 5.32-2.22 1.77.45 2.66 2.22 3.1 4.44v61.21l-1.77 3.1c-.89 0-1.33-.88-2.22-2.21 0-1.78-.44-4 0-7.54v-7.54c-.44-4.88-3.99-8.87-10.64-10.65-6.21-2.22-11.1-1.33-14.64 3.1l-5.77 9.32c-.44 1.33-1.77 1.78-2.66.89-1.33-.44-1.33-1.77-.89-3.1 8.88-17.3 18.63-33.72 30.17-48.8"/><path d="M554.01 170.77l-1.33-2.66c-.89-.89-1.77-.44-3.55 1.33l-5.76 8.87a5.65 5.65 0 0 0 0 5.32l3.54 2.67 4.44.44c1.77-.89 2.66-2.22 2.66-4zm-3.55 2.22l.45 7.54c0 2.66-.89 3.55-2.66 3.1-1.78-.44-2.22-1.33-2.22-3.1l4.43-7.54M264.36 168.11c-4.43-.44-5.32-2.22-3.1-5.32 4.43-6.21 4.88-11.98 1.77-17.3-3.1-4.88-7.98-7.54-14.2-7.98-4.43 0-9.3.88-14.18 3.1l-12.87 7.1c-2.66 2.21-4.43 3.99-4.43 5.76l21.29 53.67c1.77 5.33 6.65 6.66 14.63 3.55 12.42-4.88 21.3-11.97 25.29-21.29 2.22-4.43 1.33-9.31-2.22-13.75-3.1-4.88-7.1-7.1-11.98-7.54zm-6.2.44l7.1 3.1c3.1.45 6.2 2.67 8.42 5.33 2.66 3.55 3.1 6.65 2.66 9.76a24.75 24.75 0 0 1-10.2 13.3c-2.66 2.22-7.99 4.89-15.08 8-4.88 2.2-7.99 1.32-9.76-2.23l-20.4-52.34c0-.88.88-1.77 2.66-3.1 6.2-3.55 10.2-5.77 12.86-7.1 4.88-2.22 9.31-3.1 13.75-2.22 6.65.89 10.2 3.55 11.09 7.99 1.33 3.55 0 8.43-3.55 13.75-1.77 2.21-1.77 4.43.44 5.76"/><path d="M230.65 152.14c-1.77.89-1.77 3.1-1.33 6.65.89 2.67 1.78 4.88 3.1 6.21 3.11 2.22 6.66 2.67 11.1.9 3.99-1.34 6.65-3.56 9.31-6.66 2.66-2.66 3.1-5.77 1.78-8.43-.9-3.1-3.11-4.88-7.1-5.32-5.77-.45-11.1 1.77-16.86 6.65zm11.54 11.09l-7.54-.44-2.22-4.88v-2.66l1.77-2.22a29.71 29.71 0 0 1 9.32-4.44c3.55-.44 6.2.45 7.54 2.22 2.21 1.78 1.33 4.44-1.33 7.1l-.9.88c-1.76 2.22-3.98 3.55-6.64 4.44M265.7 181.42a10.05 10.05 0 0 0-8.88-3.1c-4.88 1.32-8.87 3.1-11.97 5.76-1.78 1.77-2.66 4-2.22 6.2l3.1 6.66c1.78 3.55 5.77 4.44 10.65 1.78 4-2.22 7.1-4.88 9.76-8.43 1.77-3.55 1.77-6.21-.45-8.87zm-8.43 0c1.77-.45 3.99 0 5.76 2.21 1.78 1.78 2.22 3.55 1.33 5.33l-6.65 5.76c-4 2.22-6.65 3.1-8.43 1.78l-1.77-2.66c-1.33-2.22-1.78-4-1.78-4.88 0-.89 1.34-2.22 3.1-3.55 2.23-1.78 5.33-3.1 8.44-4M388.56 121.1l-2.66-2.67h-9.31a4.5 4.5 0 0 0-2.67 3.1v62.1c.45 4 2.67 5.33 7.55 5.33h34.15a10.54 10.54 0 0 0 4.88-2.66l2.22-5.33c0-2.22-.89-3.99-1.78-5.32-1.33-1.78-3.1-2.66-5.32-3.1H393l-4.44-.45zm-6.65-.45c1.77 0 2.66.44 2.66 1.77l.44 46.13.45 4.88c.44 1.33 1.77 2.22 3.55 2.22l12.86.44c6.2-.44 10.64-.44 13.3 0 2.67 0 4 1.78 4.44 4.44 0 2.66-.89 4.44-3.55 4.88h-35.04c-2.22.44-3.55-.44-4-1.78l-.43-34.6c-.45-17.3 0-26.6.88-27.05.89-1.33 2.66-1.78 4.44-1.33M286.99 130.4c-1.34 2.23-1.34 4.44-.9 7.1 3.56 13.31 8.88 27.95 16.42 44.8 2.22 4.88 5.32 8.43 10.2 10.65l13.31 1.33c4.88-1.33 8.87-3.55 11.53-7.54 3.55-4 4.88-8.87 4.88-14.64-.44-9.31-3.1-24.4-7.98-44.8a6.8 6.8 0 0 0-3.1-4.43h-4.44l-4 2.66a4.77 4.77 0 0 0-.44 4.88c4.44 16.85 7.1 29.72 8.43 38.59.44 3.1-.45 5.32-1.78 7.54a8.7 8.7 0 0 1-5.76 3.99l-7.54-.44c-2.22-.9-4-3.1-5.33-6.22-3.54-8.87-7.1-22.17-10.2-39.47-.88-2.66-1.77-4.88-3.55-5.77l-5.32-1.33a6.8 6.8 0 0 0-4.43 3.1zm2.21 6.66c-.44-3.1.45-4.88 2.66-6.2 1.78-.9 3.55 0 4.44 3.54l5.32 21.29c2.22 8.43 4.44 15.52 6.66 20.85 1.77 3.1 3.99 5.32 7.1 6.65l8.87.44c3.1-.44 5.32-2.21 7.1-4.43a11.69 11.69 0 0 0 2.65-9.32l-8.42-39.92c-.45-1.77 0-3.1 1.77-3.99 1.77-1.33 3.1-.89 3.55 1.33 6.65 19.52 9.76 35.49 8.43 47.9-.45 7.55-4.44 12.87-11.1 15.53-7.09 3.1-13.3 1.78-19.07-4-3.99-4.43-7.54-12.41-11.97-23.94-3.1-8.88-5.77-17.3-7.99-25.73M507 138.4c.44-3.56-1.34-6.66-5.77-8-4.44-1.77-7.54-1.33-9.76 1.34l-11.98 16.85-5.32 3.55c-2.22 0-4-.89-5.32-3.55l-9.76-24.4c-1.33-3.1-4-4.87-8.43-5.32-4 0-6.65 1.78-7.98 5.33-1.33 6.2-2.67 14.63-3.55 26.17l-1.78 33.7c-.44 1.78.45 3.11 1.78 4.44.88.89 2.66 1.33 4.43 1.33l4.44-1.33 2.66-3.99 2.66-28.39c0-1.77.89-2.66 2.66-2.66 1.78 0 3.1.89 4 2.66l7.98 14.2c2.22 3.99 4.88 3.99 8.43 0l10.64-13.3c1.33-2.67 3.1-3.12 4.88-2.67 1.78.89 2.66 2.22 2.22 4.88l-3.55 31.5c-.44 1.77 0 3.54.89 4.87a9.05 9.05 0 0 0 3.99 2.22l4.88-1.33c1.33-.9 1.77-2.22 2.22-4.44zm-9.76 21.28c.44-4-.9-6.65-4-7.98-2.66-1.33-5.76-.45-7.98 2.21l-10.65 13.31-3.1 2.22-8.87-15.08c-1.78-3.1-4.44-4.44-7.54-4-3.1 0-4.88 1.78-4.88 5.33l-2.66 27.5c-.45 2.22-1.33 3.55-3.55 4-2.66.44-3.55-.9-3.55-3.11 0-23.95 1.77-42.58 4.88-56.33.89-4.44 3.1-6.21 5.76-5.77 2.67.89 4.88 3.1 6.21 6.65l8.43 21.3c2.22 3.54 4.44 5.32 7.54 5.32 2.66 0 5.33-1.34 7.99-3.55l10.64-15.08c3.1-4.44 6.21-5.33 8.87-3.1 2.67 1.77 3.55 5.31 2.67 9.75-.9 5.32-1.34 13.3-2.22 23.95l-1.78 24.84c-.44 2.22-1.77 3.1-3.55 2.66-1.77-.44-2.66-2.21-2.21-5.76l3.55-29.28"/></svg>